<svg version="1.0" xmlns="http://www.w3.org/2000/svg" width="3rem" height="3rem" viewBox="0 0 1024.000000 1024.000000" preserveAspectRatio="xMidYMid meet">

<g transform="translate(0.000000,1024.000000) scale(0.100000,-0.100000)" fill="#000000" stroke="none">
<path d="M2820 8004 c-58 -7 -123 -17 -145 -23 -22 -5 -70 -15 -107 -22 -38 -6 -68 -15 -68 -20 0 -5 31 -9 69 -9 61 0 72 3 85 22 11 16 19 19 26 12 8 -8 6 -15 -5 -24 -8 -7 -15 -20 -15 -30 0 -10 -7 -21 -16 -24 -13 -5 -15 -15 -11 -46 6 -50 -8 -63 -17 -15 -4 19 -10 35 -14 35 -12 0 -46 -64 -43 -82 2 -13 -3 -16 -13 -12 -9 3 -16 12 -16 20 0 21 -25 17 -57 -10 -15 -13 -37 -26 -49 -30 -11 -3 -31 -17 -43 -30 -18 -19 -21 -30 -15 -49 l9 -24 45 20 c25 11 52 22 60 23 28 5 165 49 170 54 3 3 16 5 30 4 14 0 30 3 35 7 9 6 60 14 205 34 69 10 357 6 445 -5 50 -6 128 -20 175 -31 148 -36 138 -36 145 5 8 41 20 53 29 30 3 -8 -1 -22 -9 -30 -29 -30 -28 -31 138 -99 49 -19 120 -51 158 -71 39 -19 75 -32 82 -28 7 4 9 4 5 -1 -4 -4 33 -34 83 -67 195 -126 394 -303 513 -455 27 -35 53 -60 59 -56 6 3 7 1 3 -5 -10 -17 62 -112 87 -113 17 -1 18 -2 5 -6 -16 -4 -15 -8 8 -44 47 -75 96 -167 114 -215 6 -17 21 -36 33 -42 18 -9 19 -11 4 -11 -16 -1 -16 -3 -1 -38 9 -21 29 -71 44 -112 16 -44 29 -67 33 -58 3 8 0 20 -6 26 -9 9 -8 15 6 22 17 10 25 49 10 49 -5 0 -9 21 -10 48 l-3 47 17 -30 c9 -16 17 -50 17 -75 1 -41 3 -45 26 -45 14 0 25 5 25 10 0 6 4 15 8 21 3 7 -1 22 -11 35 -35 45 -65 117 -58 136 6 15 10 13 21 -14 8 -18 26 -38 40 -45 17 -8 24 -17 20 -28 -3 -10 -2 -25 1 -35 6 -15 11 -13 34 16 l28 33 -34 95 c-50 140 -137 308 -235 456 -93 140 -219 292 -238 287 -7 -1 -10 2 -7 7 8 13 -154 165 -267 249 -96 72 -121 87 -96 55 12 -14 10 -14 -14 2 -19 12 -31 15 -38 8 -6 -6 -19 -8 -30 -6 -19 5 -19 6 1 20 18 12 19 17 8 31 -12 14 -223 122 -240 122 -5 0 -8 -9 -8 -19 0 -11 -5 -23 -12 -27 -8 -5 -9 -2 -5 11 5 12 -1 25 -18 41 -27 25 -160 76 -257 99 -53 12 -58 12 -63 -5 -3 -10 -3 -29 0 -43 8 -29 -9 -44 -31 -27 -10 9 -11 16 -4 25 8 9 8 15 0 20 -17 11 -11 32 13 40 18 6 14 9 -28 18 -36 7 -50 7 -53 -2 -2 -6 -11 -11 -19 -11 -12 0 -13 3 -4 14 9 11 1 15 -46 25 -32 6 -87 14 -122 18 -53 5 -65 3 -73 -10 -5 -10 -14 -17 -20 -17 -7 0 -7 4 1 13 6 8 8 17 4 20 -11 12 -374 5 -483 -9z m229 -21 c3 -2 -6 -2 -19 0 -13 2 -26 9 -28 16 -3 10 0 10 19 1 13 -7 26 -14 28 -17z m211 -8 c-7 -20 -14 -24 -23 -17 -6 5 -22 8 -34 6 -13 -2 -23 1 -23 6 0 6 13 10 30 10 16 0 35 6 42 14 18 19 20 14 8 -19z m155 -5 c3 -5 -1 -10 -9 -10 -9 0 -16 5 -16 10 0 6 4 10 9 10 6 0 13 -4 16 -10z m-315 -10 c0 -5 -7 -10 -16 -10 -8 0 -12 5 -9 10 3 6 10 10 16 10 5 0 9 -4 9 -10z m-366 -16 c9 -22 8 -24 -9 -24 -8 0 -15 9 -15 20 0 24 15 27 24 4z m441 -4 c3 -5 1 -10 -4 -10 -6 0 -11 5 -11 10 0 6 2 10 4 10 3 0 8 -4 11 -10z m-28 -14 c-3 -8 -2 -17 4 -20 5 -2 4 -3 -3 -2 -17 3 -23 36 -8 36 7 0 10 -6 7 -14z m104 -9 c-6 -6 -11 -19 -11 -28 0 -25 -26 -42 -51 -34 l-23 8 27 19 c14 10 24 25 21 33 -3 7 2 15 13 17 25 6 37 -2 24 -15z m-331 -12 c0 -8 -6 -15 -14 -15 -8 0 -16 7 -20 15 -4 10 1 15 14 15 11 0 20 -7 20 -15z m850 -14 c0 -5 -7 -12 -16 -15 -22 -9 -24 -8 -24 9 0 8 9 15 20 15 11 0 20 -4 20 -9z m-345 -11 c-3 -5 -11 -10 -16 -10 -6 0 -7 5 -4 10 3 6 11 10 16 10 6 0 7 -4 4 -10z m182 -14 c-17 -16 -33 -22 -47 -19 -30 8 -24 18 18 30 56 16 57 15 29 -11z m-657 -22 c0 -8 -4 -14 -8 -14 -4 0 -8 9 -8 19 0 11 4 17 8 15 4 -3 8 -12 8 -20z m895 16 c3 -6 -1 -7 -9 -4 -18 7 -21 14 -7 14 6 0 13 -4 16 -10z m-440 -30 c17 -19 17 -19 -14 -7 -20 7 -26 14 -18 19 7 4 12 8 13 8 0 0 9 -9 19 -20z m325 12 c0 -5 -11 -14 -25 -20 -20 -9 -25 -9 -25 2 0 14 14 24 38 25 6 1 12 -3 12 -7z m-390 -12 c13 -8 13 -10 -2 -10 -9 0 -20 5 -23 10 -8 13 5 13 25 0z m549 -3 c-2 -1 -13 -9 -24 -17 -19 -14 -19 -14 -6 3 7 9 18 17 24 17 6 0 8 -1 6 -3z m-89 -28 c0 -5 -4 -9 -10 -9 -5 0 -10 7 -10 16 0 8 5 12 10 9 6 -3 10 -10 10 -16z m-148 -11 c-6 -6 -15 -8 -19 -4 -4 4 -1 11 7 16 19 12 27 3 12 -12z m95 16 c-3 -3 -12 -4 -19 -1 -8 3 -5 6 6 6 11 1 17 -2 13 -5z m-133 -29 c-4 -8 -8 -15 -10 -15 -2 0 -4 7 -4 15 0 8 4 15 10 15 5 0 7 -7 4 -15z m176 -2 c-1 -13 -29 -59 -30 -48 0 21 13 55 21 55 5 0 9 -3 9 -7z m53 -26 c3 -8 1 -20 -4 -28 -6 -10 -9 -7 -9 14 0 29 5 35 13 14z m84 -29 c-3 -7 -5 -2 -5 12 0 14 2 19 5 13 2 -7 2 -19 0 -25z m50 -97 c-5 -2 -13 3 -18 10 -15 24 -10 30 9 12 10 -10 14 -20 9 -22z m1039 -682 c3 -6 -5 -3 -20 6 -14 10 -26 19 -26 22 0 7 39 -17 46 -28z m134 -269 c0 -5 -7 -10 -16 -10 -8 0 -12 5 -9 10 3 6 10 10 16 10 5 0 9 -4 9 -10z m-10 -265 c-7 -9 -15 -13 -19 -10 -3 3 1 10 9 15 21 14 24 12 10 -5z"/>
<path d="M4424 7990 c-26 -10 -94 -101 -94 -126 0 -9 -3 -14 -7 -11 -6 7 -43 -46 -43 -62 0 -5 37 -32 83 -61 80 -52 143 -99 278 -207 61 -49 87 -65 75 -45 -3 5 14 32 36 62 101 133 104 184 16 266 -38 37 -228 161 -275 181 -37 15 -40 15 -69 3z m90 -85 c9 -14 21 -23 26 -20 6 4 10 0 10 -8 0 -14 -29 -27 -60 -27 -11 1 -10 4 4 15 19 15 19 15 -1 15 -25 0 -33 10 -43 56 l-8 34 28 -20 c15 -11 35 -31 44 -45z m-59 -59 c19 -8 35 -17 35 -19 0 -2 -26 -4 -57 -3 -53 1 -58 -1 -61 -22 -2 -12 -7 -20 -12 -17 -13 8 1 44 23 60 26 18 29 18 72 1z m115 -71 c0 -14 -4 -25 -9 -25 -4 0 -6 11 -3 25 2 14 6 25 8 25 2 0 4 -11 4 -25z m95 -35 c3 -5 2 -10 -4 -10 -5 0 -13 5 -16 10 -3 6 -2 10 4 10 5 0 13 -4 16 -10z m-205 -22 c0 -13 -23 -5 -28 10 -2 7 2 10 12 6 9 -3 16 -11 16 -16z m70 7 c5 3 10 3 10 -2 0 -4 3 -18 6 -30 5 -19 2 -23 -19 -23 -20 0 -24 4 -20 20 3 12 -1 22 -11 26 -9 3 -13 10 -10 16 3 5 11 4 19 -2 8 -7 19 -9 25 -5z m250 -39 c0 -12 -5 -7 -19 24 -11 24 -11 24 3 6 9 -11 16 -24 16 -30z m-65 24 c3 -5 -1 -10 -9 -10 -9 0 -16 5 -16 10 0 6 4 10 9 10 6 0 13 -4 16 -10z m38 -75 c-3 -9 -8 -14 -10 -11 -3 3 -2 9 2 15 9 16 15 13 8 -4z"/>
<path d="M2415 7918 c-19 -11 -19 -11 0 -19 19 -7 19 -8 -2 -8 -21 -1 -21 -3 -9 -38 16 -46 38 -62 60 -44 21 18 20 44 -3 65 -11 10 -17 25 -14 37 6 21 -3 24 -32 7z"/>
<path d="M2540 7900 c-8 -5 -24 -11 -34 -15 -26 -8 -6 -28 31 -30 39 -2 55 12 42 36 -11 21 -17 22 -39 9z"/>
<path d="M2300 7860 c0 -18 -3 -19 -20 -10 -16 9 -39 1 -125 -39 -58 -27 -126 -63 -151 -80 -25 -17 -49 -31 -53 -31 -5 0 -14 -6 -20 -14 -18 -21 4 -29 24 -9 17 16 19 16 35 -5 15 -18 22 -20 47 -12 22 8 40 7 72 -5 59 -21 110 -5 156 48 29 32 33 42 24 59 -6 11 -9 21 -7 23 9 9 48 -9 48 -21 0 -8 6 -14 14 -14 24 0 38 33 40 95 1 27 -2 29 -41 33 -38 3 -43 1 -43 -18z m-30 -50 c0 -5 -4 -10 -10 -10 -5 0 -10 5 -10 10 0 6 5 10 10 10 6 0 10 -4 10 -10z m-52 -75 c-3 -3 -9 2 -12 12 -6 14 -5 15 5 6 7 -7 10 -15 7 -18z m-88 -25 c0 -5 -2 -10 -4 -10 -3 0 -8 5 -11 10 -3 6 -1 10 4 10 6 0 11 -4 11 -10z"/>
<path d="M2311 7726 c-11 -13 -11 -20 -3 -28 8 -8 13 -7 18 5 10 27 0 41 -15 23z"/>
<path d="M3070 7691 c0 -9 128 -20 136 -12 2 2 1 8 -2 12 -7 12 -134 11 -134 0z"/>
<path d="M2898 7683 c-10 -2 -18 -8 -18 -13 0 -11 131 -1 145 11 9 9 -95 11 -127 2z"/>
<path d="M3270 7683 c0 -14 151 -36 163 -24 14 14 -6 21 -87 28 -49 4 -76 2 -76 -4z"/>
<path d="M2247 7635 c-26 -25 -54 -45 -62 -45 -8 0 -15 -7 -15 -15 0 -21 11 -19 85 17 55 27 64 35 59 53 -11 36 -18 35 -67 -10z"/>
<path d="M2715 7654 c-111 -21 -119 -24 -108 -35 7 -7 38 -3 93 10 45 12 93 21 106 21 13 0 24 5 24 10 0 13 -28 11 -115 -6z"/>
<path d="M1888 7653 c22 -9 13 -24 -11 -18 -18 5 -47 -12 -135 -80 -62 -47 -112 -91 -112 -97 0 -7 15 -9 40 -5 30 4 40 2 40 -9 0 -8 -8 -14 -17 -15 -12 -1 -10 -4 7 -9 14 -4 19 -8 13 -9 -7 -1 -13 -10 -13 -21 0 -27 -16 -26 -23 1 -4 15 -11 20 -23 15 -11 -4 -15 -2 -11 8 5 13 -10 36 -24 36 -4 0 -31 -23 -60 -52 -29 -28 -46 -48 -39 -43 9 5 8 0 -3 -16 -17 -23 -23 -101 -11 -133 3 -9 14 -16 23 -16 14 -1 13 -3 -3 -15 -28 -21 -13 -29 52 -26 68 3 113 36 106 77 -3 16 1 27 11 30 11 4 13 14 8 33 -6 23 -5 25 10 12 11 -9 15 -21 11 -37 -9 -34 3 -30 60 24 29 26 98 80 154 121 56 40 102 77 102 81 0 23 -25 20 -42 -3 -11 -15 -24 -27 -30 -27 -6 0 -6 6 2 15 6 8 8 20 4 26 -4 7 -3 9 3 6 6 -4 16 0 23 8 11 13 7 15 -22 15 -28 0 -37 -5 -46 -25 -7 -14 -12 -32 -12 -40 0 -7 -7 -21 -16 -29 -17 -18 -44 -21 -44 -6 0 6 7 10 15 10 15 0 45 49 45 75 0 28 -60 14 -128 -31 -5 -3 21 -54 28 -54 4 0 10 9 13 20 3 11 11 20 19 20 10 0 10 -2 -1 -9 -8 -5 -12 -19 -9 -35 5 -22 3 -24 -14 -15 -11 6 -27 8 -35 5 -24 -10 -65 21 -61 47 2 15 -4 23 -22 27 -24 6 -23 7 9 13 18 4 43 7 56 7 12 0 50 12 86 26 54 22 73 25 122 19 72 -8 87 -13 87 -31 0 -18 9 -18 56 2 l39 17 -28 10 c-20 6 -32 6 -40 -2 -18 -18 -26 -13 -25 19 1 33 6 35 43 18 21 -10 28 -9 35 2 5 9 5 19 -1 26 -15 18 -103 28 -129 14 -17 -9 -25 -8 -39 4 -23 21 -34 20 -55 -3 -10 -11 -39 -27 -64 -35 -65 -23 -76 -19 -17 5 27 11 55 25 62 31 16 13 7 28 -15 27 -11 0 -12 -3 -4 -6z m-261 -269 c-4 -4 -21 -8 -38 -9 -22 -2 -27 0 -18 6 16 10 66 12 56 3z m23 -70 c0 -16 -5 -24 -12 -22 -18 6 -19 48 -2 48 8 0 14 -11 14 -26z m-74 -69 c1 -14 -2 -25 -7 -25 -5 0 -9 11 -9 25 0 33 15 33 16 0z m34 -83 c-7 -3 -19 3 -28 13 -16 15 -15 16 12 4 15 -7 23 -15 16 -17z"/>
<path d="M3502 7649 c5 -15 93 -41 123 -36 16 3 13 7 -15 19 -53 24 -114 34 -108 17z"/>
<path d="M2500 7601 c0 -6 -6 -11 -14 -11 -7 0 -20 -8 -27 -17 -12 -15 -12 -16 6 -9 11 4 32 10 48 13 26 5 48 23 28 23 -5 0 -16 3 -25 6 -9 3 -16 1 -16 -5z"/>
<path d="M3720 7592 c0 -9 122 -62 143 -62 22 0 1 20 -40 38 -65 28 -103 37 -103 24z"/>
<path d="M3080 7561 c0 -8 -26 -10 -92 -6 -99 6 -181 -2 -172 -16 7 -12 -14 -49 -28 -49 -6 0 -8 11 -6 25 4 19 1 25 -13 25 -15 0 -17 -5 -13 -29 6 -28 -9 -51 -21 -31 -4 7 -13 7 -26 -1 -26 -14 -34 -6 -19 20 6 13 7 21 1 21 -22 0 -176 -53 -182 -62 -4 -6 -22 -12 -40 -13 -44 -4 -140 -46 -136 -59 2 -6 35 -12 73 -13 38 0 61 1 52 4 -10 2 -18 9 -18 15 0 6 11 3 25 -6 23 -15 27 -15 41 -1 9 9 24 14 33 11 20 -6 144 36 141 48 -2 9 19 26 34 26 4 0 6 -7 2 -15 -4 -13 2 -14 37 -9 62 10 90 22 84 38 -3 7 -1 19 4 27 7 11 11 10 23 -6 11 -15 11 -22 3 -28 -7 -5 17 -6 52 -3 35 3 73 6 84 6 13 0 17 5 13 15 -3 8 -1 15 4 15 6 0 10 -7 10 -14 0 -12 25 -15 135 -18 85 -2 131 0 125 7 -13 12 -13 35 -1 35 5 0 22 5 38 12 15 6 39 10 53 9 19 -2 22 0 14 9 -16 16 -314 27 -314 11z m-80 -51 c0 -5 -2 -10 -4 -10 -3 0 -8 5 -11 10 -3 6 -1 10 4 10 6 0 11 -4 11 -10z m60 -4 c0 -3 -4 -8 -10 -11 -5 -3 -10 -1 -10 4 0 6 5 11 10 11 6 0 10 -2 10 -4z m-130 -16 c0 -5 -7 -10 -16 -10 -8 0 -12 5 -9 10 3 6 10 10 16 10 5 0 9 -4 9 -10z"/>
<path d="M2328 7528 c-27 -11 -48 -25 -48 -30 0 -6 8 -7 18 -4 62 23 102 42 102 49 0 12 -22 8 -72 -15z"/>
<path d="M3465 7519 c-5 -8 -28 -10 -71 -6 -103 8 -97 -33 7 -50 46 -8 58 -7 66 6 11 18 45 8 37 -12 -3 -9 21 -21 86 -40 287 -86 609 -291 793 -503 207 -239 341 -526 378 -812 l13 -92 35 6 c20 4 40 10 44 14 18 16 -37 278 -89 420 -77 216 -233 450 -415 626 -92 88 -217 189 -245 198 -12 4 -33 17 -48 29 -36 32 -171 103 -161 86 6 -10 2 -9 -11 2 -29 25 -77 47 -91 42 -7 -3 -13 0 -13 5 0 12 -54 34 -150 60 -108 29 -157 36 -165 21z"/>
<path d="M3935 7509 c-4 -5 -5 -12 -4 -13 2 -1 36 -21 76 -43 53 -31 73 -38 77 -28 4 12 -15 26 -136 92 -4 2 -10 -2 -13 -8z"/>
<path d="M1755 7460 c-8 -14 3 -30 21 -30 16 0 16 2 8 24 -7 18 -20 21 -29 6z"/>
<path d="M2143 7436 c-29 -18 -50 -36 -46 -39 7 -8 123 54 123 65 0 16 -26 7 -77 -26z"/>
<path d="M3066 7392 c-2 -9 -7 -72 -11 -139 l-7 -123 55 0 54 0 2 61 c2 57 1 60 -19 49 -20 -11 -26 -25 -12 -33 4 -2 1 -2 -5 -1 -7 2 -13 -1 -13 -5 0 -5 -6 -11 -14 -14 -11 -5 -11 2 3 34 14 35 28 45 54 40 5 -1 7 16 6 38 -2 22 -1 43 2 46 3 2 4 18 1 34 -4 27 -7 29 -48 29 -32 0 -44 -4 -48 -16z m17 -77 c-3 -9 -8 -14 -10 -11 -3 3 -2 9 2 15 9 16 15 13 8 -4z"/>
<path d="M4146 7384 c-4 -9 3 -19 19 -26 14 -6 25 -14 25 -17 0 -4 13 -14 29 -24 21 -12 32 -14 37 -6 3 6 2 14 -3 18 -5 3 -30 21 -55 38 -37 27 -47 30 -52 17z"/>
<path d="M2005 7349 c-37 -28 -55 -49 -41 -49 17 0 86 52 86 65 0 19 2 20 -45 -16z"/>
<path d="M2272 7368 c-22 -22 -13 -38 21 -37 17 1 25 3 16 6 -11 3 -15 11 -12 24 6 21 -7 25 -25 7z"/>
<path d="M8956 7335 c-65 -12 -122 -29 -126 -36 -13 -20 -32 -138 -24 -150 4 -6 1 -15 -5 -19 -18 -10 -32 -80 -17 -80 7 0 6 -4 -2 -9 -8 -5 -28 -78 -47 -167 -46 -221 -57 -269 -60 -272 -2 -2 -21 6 -44 17 -42 22 -101 28 -101 11 0 -5 -4 -10 -10 -10 -5 0 -10 6 -10 14 0 18 -63 12 -130 -12 -150 -53 -263 -182 -330 -378 -33 -96 -72 -305 -76 -412 -4 -97 -6 -107 -36 -150 -44 -64 -156 -173 -200 -196 -23 -12 -46 -16 -62 -12 -46 11 -48 33 -19 168 14 67 27 140 27 161 1 20 4 37 7 37 5 0 39 116 39 134 0 3 -12 7 -27 9 -27 4 -27 4 3 6 l31 1 32 138 c53 230 52 284 -10 337 -26 21 -41 25 -93 25 -35 0 -84 -6 -110 -14 -72 -22 -216 -136 -216 -171 0 -11 -20 -25 -37 -25 -3 0 -3 11 -1 25 3 14 1 25 -3 25 -5 0 -9 5 -9 10 0 6 5 9 11 8 6 -2 12 7 14 20 2 25 -7 27 -86 12 -29 -6 -56 -15 -60 -21 -5 -8 -8 -8 -11 1 -7 21 -87 -7 -93 -33 -3 -12 -28 -134 -55 -272 -71 -353 -84 -391 -177 -523 -69 -98 -195 -179 -248 -159 -14 6 -13 11 6 49 80 156 124 400 99 549 -30 181 -125 270 -289 271 -72 0 -161 -16 -161 -29 0 -3 12 -22 27 -42 l28 -36 -33 23 c-17 13 -32 30 -32 38 0 19 -13 18 -63 -7 -71 -36 -97 -58 -91 -77 5 -13 4 -14 -4 -3 -8 11 -20 3 -57 -35 -118 -123 -206 -383 -222 -658 l-6 -99 -58 -76 c-31 -42 -76 -94 -98 -116 -42 -40 -52 -65 -27 -65 12 0 26 -20 26 -36 0 -11 -30 -2 -53 16 l-25 20 -49 -22 c-26 -11 -79 -26 -118 -32 -66 -11 -72 -10 -112 12 -54 30 -79 71 -93 155 -10 53 -10 90 0 165 29 233 107 424 197 484 16 10 24 18 18 18 -5 0 -3 5 5 10 19 12 101 0 118 -17 11 -10 17 -11 28 -2 8 6 22 8 31 4 17 -6 16 -8 -3 -23 -11 -9 -26 -37 -33 -62 -19 -67 -48 -107 -98 -137 -43 -25 -45 -28 -39 -61 7 -45 20 -58 76 -73 103 -27 200 40 239 165 53 173 -1 309 -140 350 -65 20 -124 20 -212 1 -153 -32 -282 -138 -362 -296 -53 -107 -55 -118 -19 -111 19 3 25 1 20 -7 -4 -6 -18 -11 -31 -11 -20 0 -25 -7 -34 -52 -22 -106 -31 -200 -25 -251 6 -51 5 -54 -57 -146 -35 -51 -77 -112 -92 -135 -15 -22 -31 -41 -35 -41 -4 0 -27 -15 -52 -34 -25 -18 -63 -42 -84 -53 -38 -19 -39 -21 -20 -35 10 -8 26 -12 34 -9 8 3 26 8 40 12 l25 7 -21 -20 c-17 -17 -30 -20 -73 -15 -38 3 -51 8 -47 18 4 10 -1 11 -22 3 -22 -9 -206 -10 -198 -1 2 1 -12 18 -30 38 -31 32 -44 64 -60 142 l-6 31 70 -6 c39 -3 79 -2 89 2 10 4 31 9 47 11 73 10 213 126 275 228 37 61 81 175 81 208 0 20 -1 21 -20 3 -11 -10 -20 -13 -20 -7 0 7 5 12 10 12 6 0 10 7 10 15 0 8 7 15 16 15 15 0 16 9 11 71 -11 135 -90 224 -208 235 -172 15 -264 -14 -371 -121 -63 -62 -62 -75 3 -75 48 0 51 1 46 22 -6 21 -5 21 17 -3 13 -13 22 -26 20 -28 -1 -2 -31 -5 -66 -7 -105 -6 -107 -7 -135 -55 -72 -126 -121 -296 -129 -454 -10 -174 26 -302 108 -391 61 -67 124 -94 219 -94 42 0 91 3 108 6 l32 7 -23 25 c-19 21 -20 24 -5 19 10 -4 23 -7 28 -7 5 0 9 -7 9 -15 0 -8 3 -15 8 -15 24 0 94 26 139 52 47 26 52 32 42 50 -13 24 -5 34 35 44 26 6 27 5 17 -14 -20 -37 -12 -46 17 -19 15 14 40 37 56 50 16 13 30 34 31 45 1 18 -3 21 -24 17 -22 -5 -23 -4 -6 4 11 5 29 7 40 5 25 -5 32 0 79 59 21 26 33 47 26 47 -7 0 -1 10 14 21 15 12 25 27 22 35 -12 31 23 0 39 -36 23 -52 90 -115 150 -141 63 -28 202 -39 216 -18 6 10 9 11 9 2 0 -16 32 -16 83 -2 30 8 37 15 37 34 0 14 4 25 9 25 5 0 7 -9 4 -20 -7 -27 11 -26 66 6 74 43 144 108 207 191 32 43 62 82 66 87 5 6 14 2 22 -10 13 -16 18 -17 35 -6 28 16 36 15 21 -3 -11 -13 -6 -15 33 -15 25 0 49 5 53 11 5 9 -3 10 -30 5 -24 -5 -36 -3 -36 4 0 15 186 1 190 -14 1 0 3 -25 6 -53 4 -35 2 -53 -5 -53 -6 0 -11 9 -11 21 0 11 -5 29 -10 40 -7 13 -7 19 0 19 19 0 10 18 -12 23 -14 4 -26 1 -31 -8 -5 -10 -26 -15 -65 -16 -31 -1 -67 -4 -80 -8 l-24 -6 27 -25 c17 -16 39 -25 63 -26 117 -3 114 -2 102 -24 -10 -19 -8 -20 35 -20 25 0 45 4 45 9 0 5 7 12 16 15 12 4 15 2 10 -9 -7 -20 30 -12 99 21 63 29 116 73 166 136 l39 50 68 1 c93 3 178 45 267 134 l66 66 -7 -39 c-4 -21 -14 -79 -24 -129 -16 -88 -16 -90 2 -93 11 -2 36 8 57 22 20 14 46 26 57 25 13 0 9 -5 -15 -15 -18 -8 -32 -17 -30 -19 9 -8 145 26 154 39 18 24 69 290 56 294 -16 5 -13 22 4 22 8 0 15 3 15 8 0 4 22 113 49 243 65 319 94 376 240 473 70 47 86 53 95 37 3 -4 -26 -165 -65 -357 -79 -391 -92 -508 -62 -563 32 -62 63 -76 162 -76 80 0 93 3 162 37 55 27 94 56 140 105 35 36 85 88 110 115 43 45 69 60 69 39 0 -5 -9 -11 -20 -14 -24 -6 -26 -41 -5 -84 18 -36 48 -58 93 -67 38 -9 67 13 59 44 -6 24 -1 25 20 4 12 -11 13 -18 4 -27 -19 -19 -12 -27 22 -27 37 0 125 22 153 38 18 11 18 11 -2 12 -21 0 -74 35 -74 49 0 4 15 8 33 8 92 2 152 15 174 39 12 13 27 24 32 24 6 0 18 12 28 28 41 67 123 135 123 102 0 -5 -4 -10 -9 -10 -11 0 -45 -32 -76 -70 -16 -20 -16 -22 -2 -11 35 27 27 3 -8 -26 l-36 -30 30 -26 c80 -67 241 -40 369 62 46 37 51 45 40 58 -11 14 -10 15 8 9 17 -5 28 1 48 24 34 41 33 61 -5 94 -30 27 -34 46 -11 54 7 2 12 -4 12 -13 0 -9 5 -21 10 -28 6 -7 17 -21 25 -32 18 -27 37 -9 40 39 2 20 6 49 10 66 5 21 1 43 -10 67 l-18 37 -26 -31 c-71 -83 -111 -132 -111 -137 0 -2 10 -7 23 -9 18 -4 17 -4 -6 -6 -16 0 -37 -6 -48 -12 -20 -10 -20 -11 5 -44 30 -39 32 -47 11 -39 -8 3 -17 14 -20 25 -7 22 -32 24 -70 7 -32 -14 -72 2 -84 34 -9 23 -9 23 -16 -4 -10 -37 -1 -56 27 -60 14 -2 19 -6 12 -10 -7 -5 -22 0 -35 11 -22 18 -22 20 -9 75 7 31 10 59 6 63 -3 4 -27 7 -53 7 -32 1 -48 6 -51 16 -8 25 -26 31 -39 13 -12 -15 -13 -15 -13 5 0 16 -6 22 -22 23 -13 0 -17 3 -10 6 7 3 20 2 30 -2 9 -4 28 -8 42 -9 18 -1 24 -6 22 -18 -3 -20 24 -25 30 -6 3 9 12 9 37 -2 38 -15 51 -5 51 41 0 19 -6 28 -22 33 -13 3 -24 2 -26 -3 -1 -4 -10 -17 -18 -27 -14 -18 -15 -18 -9 3 3 12 8 49 10 83 2 34 6 64 9 67 10 10 26 -9 26 -32 0 -23 23 -55 40 -55 5 0 16 35 25 78 9 42 23 108 32 146 13 58 14 69 2 77 -8 5 -9 9 -3 9 7 0 14 7 17 14 4 11 1 13 -11 10 -16 -5 -16 -5 0 8 9 8 28 60 42 119 31 125 31 122 6 114 -28 -9 -25 3 3 14 20 8 27 31 70 237 31 148 44 230 37 232 -7 3 -6 8 3 16 9 6 25 70 41 152 29 160 29 154 19 153 -5 -1 -61 -12 -127 -24z m-53 -100 c-9 -19 -20 -35 -24 -35 -11 0 -18 25 -11 37 6 8 41 32 49 33 2 0 -5 -16 -14 -35z m-43 -35 c0 -5 -4 -10 -9 -10 -6 0 -13 5 -16 10 -3 6 1 10 9 10 9 0 16 -4 16 -10z m-5 -220 c-11 -5 -33 -8 -50 -8 -29 0 -29 0 -5 8 14 4 36 8 50 8 23 1 23 0 5 -8z m120 -50 c-3 -5 -12 -10 -18 -10 -7 0 -6 4 3 10 19 12 23 12 15 0z m-145 -84 c0 -3 -4 -8 -10 -11 -5 -3 -10 -1 -10 4 0 6 5 11 10 11 6 0 10 -2 10 -4z m-62 -55 c-13 -15 -25 -27 -27 -25 -4 4 39 54 47 54 2 0 -7 -13 -20 -29z m152 -161 c0 -5 -9 -10 -20 -10 -11 0 -20 5 -20 10 0 6 9 10 20 10 11 0 20 -4 20 -10z m-176 -15 c-10 -8 -23 -15 -28 -15 -6 0 -1 7 10 15 10 8 23 15 28 15 6 0 1 -7 -10 -15z m96 -5 c8 -5 11 -10 5 -10 -5 0 -17 5 -25 10 -8 5 -10 10 -5 10 6 0 17 -5 25 -10z m-465 -30 c3 -5 -1 -10 -9 -10 -9 0 -16 5 -16 10 0 6 4 10 9 10 6 0 13 -4 16 -10z m-90 -40 c-3 -5 -12 -10 -18 -10 -7 0 -6 4 3 10 19 12 23 12 15 0z m338 3 c-7 -2 -19 -2 -25 0 -7 3 -2 5 12 5 14 0 19 -2 13 -5z m243 -12 c-3 -5 -15 -7 -26 -4 -28 7 -25 13 6 13 14 0 23 -4 20 -9z m-171 -49 c-11 -11 -27 17 -20 35 6 16 8 16 16 -6 5 -13 7 -26 4 -29z m-188 26 c-15 -11 -9 -13 35 -13 92 0 92 0 86 -118 -6 -101 -5 -103 16 -103 14 1 20 -4 18 -15 -1 -10 7 -19 19 -22 18 -5 20 -9 10 -20 -9 -12 -8 -16 6 -21 11 -5 22 -1 29 9 15 21 24 7 14 -21 -14 -35 -27 -36 -62 -6 -58 50 -65 48 -78 -16 -31 -163 -84 -364 -111 -419 -43 -90 -135 -157 -206 -151 -31 3 -38 8 -49 38 -18 49 -17 152 2 282 14 93 14 112 3 119 -11 7 -11 9 2 9 11 0 23 27 43 93 36 121 95 244 139 294 l36 39 -29 -4 c-17 -2 -30 0 -30 5 0 5 -19 8 -42 6 l-43 -2 40 8 c22 5 43 7 48 4 4 -2 13 -1 20 4 13 8 75 30 91 32 6 1 2 -5 -7 -11z m167 -33 c3 -8 13 -11 25 -8 15 4 21 1 21 -12 0 -14 -3 -15 -15 -5 -19 15 -19 13 -1 -38 10 -27 11 -44 5 -48 -14 -9 -18 -3 -25 42 -3 21 -14 48 -25 60 -10 11 -19 23 -19 27 0 11 28 -4 34 -18z m-374 5 c13 -8 13 -10 -2 -10 -9 0 -20 5 -23 10 -8 13 5 13 25 0z m-675 -40 c-16 -16 -38 -30 -49 -30 -17 1 -15 3 9 14 17 7 36 20 44 29 7 10 16 17 19 17 3 0 -7 -13 -23 -30z m755 6 c0 -2 -7 -7 -16 -10 -8 -3 -12 -2 -9 4 6 10 25 14 25 6z m-195 -26 c10 0 8 -18 -11 -77 -26 -87 -28 -95 -14 -73 16 25 11 -3 -6 -30 -15 -25 -15 -25 -8 -1 4 16 3 21 -5 17 -15 -10 -14 -5 10 65 13 37 19 73 16 92 -3 18 -3 26 0 20 2 -7 11 -13 18 -13z m90 10 c-3 -5 -12 -10 -18 -10 -7 0 -6 4 3 10 19 12 23 12 15 0z m-505 -88 c-1 -11 -6 -7 -17 13 -8 17 -21 37 -27 46 -6 8 1 2 17 -13 15 -16 27 -36 27 -46z m480 22 c0 -8 -43 -43 -54 -44 -5 0 1 11 14 25 22 24 40 32 40 19z m455 -30 c16 -10 25 -26 25 -41 0 -22 3 -24 23 -18 44 14 87 17 87 6 0 -6 -16 -11 -35 -11 -39 0 -43 -7 -18 -25 11 -8 14 -18 9 -31 -8 -18 -8 -18 -16 2 -11 29 -30 40 -40 24 -13 -21 -29 -2 -35 45 -7 45 -22 59 -52 48 -11 -4 -14 -3 -9 5 10 17 32 15 61 -4z m-1449 -51 c-6 -6 -36 9 -36 18 0 5 9 4 20 -3 10 -7 18 -14 16 -15z m1035 4 c-10 -9 -11 -8 -5 6 3 10 9 15 12 12 3 -3 0 -11 -7 -18z m-1122 -10 c-2 -1 -13 -9 -24 -17 -19 -14 -19 -14 -6 3 7 9 18 17 24 17 6 0 8 -1 6 -3z m1105 -41 c-3 -13 -1 -27 5 -30 14 -9 14 -26 0 -26 -5 0 -8 4 -4 9 9 16 -13 23 -35 11 -13 -7 -20 -7 -20 0 0 5 7 10 15 10 9 0 21 11 27 25 14 32 20 32 12 1z m-1174 0 c0 -3 -4 -8 -10 -11 -5 -3 -10 -1 -10 4 0 6 5 11 10 11 6 0 10 -2 10 -4z m1688 -95 c-15 -5 -21 7 -13 26 7 17 8 17 15 -2 4 -11 3 -22 -2 -24z m-2558 25 c0 -3 -7 -12 -16 -20 -8 -9 -11 -16 -5 -16 6 0 8 -7 5 -15 -4 -8 -12 -15 -19 -15 -6 0 -20 -9 -30 -20 -10 -11 -23 -20 -29 -20 -6 0 11 25 39 55 49 54 55 59 55 51z m1938 -5 c-26 -4 -50 -10 -54 -13 -3 -4 7 -18 22 -32 16 -14 24 -26 18 -26 -6 0 -21 11 -34 25 -32 35 -14 55 49 54 l46 -2 -47 -6z m79 -14 c1 -11 1 -18 0 -16 -2 2 -8 11 -15 20 -9 12 -9 16 1 16 7 0 14 -9 14 -20z m578 -7 c3 -5 1 -10 -4 -10 -6 0 -11 5 -11 10 0 6 2 10 4 10 3 0 8 -4 11 -10z m-1700 -29 c10 -17 -11 -21 -31 -6 -18 14 -18 14 3 15 12 0 24 -4 28 -9z m60 -19 c-3 -3 -11 0 -18 7 -9 10 -8 11 6 5 10 -3 15 -9 12 -12z m-975 -17 c0 -8 -4 -15 -10 -15 -5 0 -7 7 -4 15 4 8 8 15 10 15 2 0 4 -7 4 -15z m2430 0 c0 -8 -7 -15 -15 -15 -26 0 -18 20 13 29 1 1 2 -6 2 -14z m-2176 -24 c16 -18 15 -20 -26 -43 -53 -29 -98 -100 -135 -213 -23 -69 -26 -97 -27 -210 0 -118 2 -136 27 -198 24 -62 25 -71 12 -96 -20 -40 -91 -101 -125 -108 -17 -3 -30 -9 -30 -13 0 -4 -15 -4 -32 -1 -22 4 -41 18 -55 40 -20 29 -23 47 -23 126 0 170 54 415 122 549 34 68 110 153 153 172 46 20 119 18 139 -5z m583 13 c-3 -3 -12 -4 -19 -1 -8 3 -5 6 6 6 11 1 17 -2 13 -5z m-960 -40 c-3 -3 -12 -4 -19 -1 -8 3 -5 6 6 6 11 1 17 -2 13 -5z m968 -12 c-3 -3 -11 0 -18 7 -9 10 -8 11 6 5 10 -3 15 -9 12 -12z m75 -12 c12 -8 10 -10 -10 -10 -14 0 -32 5 -40 10 -12 8 -10 10 10 10 14 0 32 -5 40 -10z m-990 -16 c22 -9 40 -20 40 -25 0 -14 -64 0 -77 17 -9 12 -16 13 -32 5 -26 -14 -33 -14 -57 4 -17 13 -15 14 33 15 29 0 71 -7 93 -16z m-576 -24 c-22 -9 -29 -6 -20 9 4 6 14 7 23 4 15 -6 14 -7 -3 -13z m2461 0 c-3 -5 -11 -10 -16 -10 -6 0 -7 5 -4 10 3 6 11 10 16 10 6 0 7 -4 4 -10z m-1925 -10 c8 -5 11 -10 5 -10 -5 0 -17 5 -25 10 -8 5 -10 10 -5 10 6 0 17 -5 25 -10z m2094 -29 c-2 -3 -12 3 -22 13 -16 17 -16 18 5 5 12 -7 20 -15 17 -18z m421 19 c3 -5 2 -10 -4 -10 -5 0 -13 5 -16 10 -3 6 -2 10 4 10 5 0 13 -4 16 -10z m-1495 -3 c0 -2 -12 -14 -27 -28 l-28 -24 24 28 c23 25 31 32 31 24z m-1445 -16 c-6 -5 -21 -11 -35 -15 -21 -5 -20 -3 5 9 35 17 42 18 30 6z m-110 -20 c-12 -12 -65 -25 -65 -17 0 8 39 24 60 25 9 1 10 -2 5 -8z m-295 -25 c0 -2 -8 -10 -17 -17 -16 -13 -17 -12 -4 4 13 16 21 21 21 13z m2749 -8 c-4 -37 0 -40 49 -33 26 4 44 4 40 0 -12 -13 -76 -17 -96 -6 -17 9 -20 23 -13 49 3 9 22 0 20 -10z m-2372 -4 c-3 -3 -12 -4 -19 -1 -8 3 -5 6 6 6 11 1 17 -2 13 -5z m1454 -67 c-10 -9 -11 -8 -5 6 3 10 9 15 12 12 3 -3 0 -11 -7 -18z m439 -12 c23 -19 35 -35 27 -35 -8 0 -22 11 -31 25 -9 14 -23 25 -31 25 -8 0 -15 5 -15 10 0 15 5 13 50 -25z m75 17 c-3 -3 -11 0 -18 7 -9 10 -8 11 6 5 10 -3 15 -9 12 -12z m1020 8 c3 -5 2 -10 -4 -10 -5 0 -13 5 -16 10 -3 6 -2 10 4 10 5 0 13 -4 16 -10z m-2716 -29 c10 -6 10 -10 1 -16 -7 -4 -19 0 -28 9 -14 13 -14 16 -2 16 8 0 21 -4 29 -9z m157 -59 c-2 -2 -23 6 -46 18 -28 14 -51 19 -69 15 -26 -6 -26 -6 4 13 l30 18 42 -30 c24 -16 41 -31 39 -34z m549 58 c3 -5 2 -10 -4 -10 -5 0 -13 5 -16 10 -3 6 -2 10 4 10 5 0 13 -4 16 -10z m1505 0 c0 -5 -5 -10 -11 -10 -5 0 -7 5 -4 10 3 6 8 10 11 10 2 0 4 -4 4 -10z m-465 -30 c-3 -5 -12 -10 -18 -10 -7 0 -6 4 3 10 19 12 23 12 15 0z m380 -10 c3 -5 2 -10 -4 -10 -5 0 -13 5 -16 10 -3 6 -2 10 4 10 5 0 13 -4 16 -10z m56 -6 c12 -14 11 -16 -5 -13 -11 2 -21 10 -24 17 -5 17 13 15 29 -4z m924 -4 c-3 -5 -14 -10 -23 -9 -14 0 -13 2 3 9 27 11 27 11 20 0z m-1492 -20 c18 -22 4 -28 -23 -10 -13 9 -13 10 0 10 13 0 13 1 0 10 -8 5 -10 10 -5 10 6 0 18 -9 28 -20z m1227 -30 c0 -5 -4 -10 -10 -10 -5 0 -10 5 -10 10 0 6 5 10 10 10 6 0 10 -4 10 -10z m-1116 -35 c-4 -8 -8 -15 -10 -15 -2 0 -4 7 -4 15 0 8 4 15 10 15 5 0 7 -7 4 -15z m-1757 -11 c-3 -3 -12 -4 -19 -1 -8 3 -5 6 6 6 11 1 17 -2 13 -5z m603 -20 c0 -8 -4 -12 -10 -9 -5 3 -10 10 -10 16 0 5 5 9 10 9 6 0 10 -7 10 -16z m-1945 -14 c24 -26 31 -105 15 -172 -39 -165 -150 -287 -279 -304 l-54 -7 6 64 c12 129 90 311 166 390 41 43 52 49 88 49 27 0 46 -6 58 -20z m3405 10 c0 -13 -20 -13 -40 0 -12 8 -9 10 13 10 15 0 27 -4 27 -10z m170 5 c0 -2 -13 -11 -30 -20 -16 -9 -30 -12 -30 -7 0 4 12 13 28 19 15 6 28 11 30 12 1 1 2 -1 2 -4z m40 -5 c0 -5 -5 -10 -11 -10 -5 0 -7 5 -4 10 3 6 8 10 11 10 2 0 4 -4 4 -10z m-1570 -4 c0 -2 -7 -6 -15 -10 -8 -3 -15 -1 -15 4 0 6 7 10 15 10 8 0 15 -2 15 -4z m-1523 -12 c-3 -3 -12 -4 -19 -1 -8 3 -5 6 6 6 11 1 17 -2 13 -5z m3363 -4 c0 -5 -4 -10 -10 -10 -5 0 -10 5 -10 10 0 6 5 10 10 10 6 0 10 -4 10 -10z m-4250 -14 c0 -2 -8 -10 -17 -17 -16 -13 -17 -12 -4 4 13 16 21 21 21 13z m2317 -17 c-22 -11 -41 -18 -44 -15 -4 3 9 12 28 20 50 22 60 18 16 -5z m1068 1 c3 -5 2 -10 -4 -10 -5 0 -13 5 -16 10 -3 6 -2 10 4 10 5 0 13 -4 16 -10z m41 -37 c-3 -4 -12 -1 -18 5 -9 9 -9 12 0 12 6 0 9 8 6 18 -2 9 1 7 7 -6 7 -12 9 -25 5 -29z m1019 37 c-3 -5 -11 -10 -16 -10 -6 0 -7 5 -4 10 3 6 11 10 16 10 6 0 7 -4 4 -10z m-4351 -72 l21 -17 -22 5 c-16 5 -25 -1 -38 -23 -14 -25 -15 -26 -8 -3 4 14 7 40 7 58 0 27 1 30 9 15 5 -10 19 -26 31 -35z m3156 42 c0 -5 -5 -10 -11 -10 -5 0 -7 5 -4 10 3 6 8 10 11 10 2 0 4 -4 4 -10z m-2472 -45 c-6 -14 -13 -23 -15 -21 -5 5 15 46 22 46 3 0 -1 -11 -7 -25z m3267 -5 c3 -5 2 -10 -4 -10 -5 0 -13 5 -16 10 -3 6 -2 10 4 10 5 0 13 -4 16 -10z m-91 -46 c3 -8 2 -12 -4 -9 -6 3 -10 10 -10 16 0 14 7 11 14 -7z m106 -4 c0 -5 -5 -10 -11 -10 -5 0 -7 5 -4 10 3 6 8 10 11 10 2 0 4 -4 4 -10z m-3143 -18 c-10 -10 -17 -25 -17 -32 0 -11 -3 -11 -12 -2 -9 9 -7 16 7 32 10 11 23 20 28 20 6 0 3 -8 -6 -18z m813 -4 c0 -6 -7 -7 -16 -4 -9 3 -20 6 -25 6 -5 0 -9 4 -9 9 0 4 11 6 25 3 14 -2 25 -9 25 -14z m1550 -8 c-6 -11 -13 -20 -16 -20 -2 0 0 9 6 20 6 11 13 20 16 20 2 0 0 -9 -6 -20z m-3335 3 c-11 -2 -33 -8 -50 -13 -28 -9 -29 -9 -11 5 11 8 34 14 50 14 20 -1 24 -3 11 -6z m98 -20 c-7 -2 -21 -2 -30 0 -10 3 -4 5 12 5 17 0 24 -2 18 -5z m821 -20 c9 -21 -16 -37 -27 -17 -9 15 -2 34 13 34 4 0 11 -8 14 -17z m956 3 c-7 -7 -13 -7 -20 0 -6 6 -3 10 10 10 13 0 16 -4 10 -10z m-170 -10 c0 -2 -7 -6 -15 -10 -8 -3 -15 -1 -15 4 0 6 7 10 15 10 8 0 15 -2 15 -4z m170 -86 c0 -5 -10 -10 -22 -9 -22 0 -22 1 -3 9 11 5 21 9 23 9 1 1 2 -3 2 -9z m405 -10 c3 -5 2 -10 -4 -10 -5 0 -13 5 -16 10 -3 6 -2 10 4 10 5 0 13 -4 16 -10z m-410 -69 c-3 -6 -16 -11 -28 -11 -21 0 -21 1 3 13 27 15 36 14 25 -2z m-1390 -1 c3 -5 -3 -10 -14 -10 -11 0 -23 5 -26 10 -3 6 3 10 14 10 11 0 23 -4 26 -10z m1722 -37 c-4 -3 -1 -13 5 -21 10 -12 9 -14 -6 -11 -24 5 -31 39 -8 39 8 0 12 -3 9 -7z m-2197 -59 c0 -8 -4 -12 -10 -9 -5 3 -10 13 -10 21 0 8 5 12 10 9 6 -3 10 -13 10 -21z m985 17 c-16 -15 -65 -25 -65 -13 0 6 12 13 28 15 15 2 31 5 37 6 6 0 6 -2 0 -8z m1061 -32 c8 -14 -10 -11 -32 6 -18 13 -18 14 4 8 12 -3 25 -9 28 -14z m-1271 -49 c-27 -12 -43 -12 -25 0 8 5 22 9 30 9 10 0 8 -3 -5 -9z m170 -40 c3 -5 1 -10 -4 -10 -6 0 -11 5 -11 10 0 6 2 10 4 10 3 0 8 -4 11 -10z m-291 -26 c3 -8 2 -12 -4 -9 -6 3 -10 10 -10 16 0 14 7 11 14 -7z m456 -4 c0 -5 -4 -10 -10 -10 -5 0 -10 5 -10 10 0 6 5 10 10 10 6 0 10 -4 10 -10z m-1213 -16 c-3 -3 -12 -4 -19 -1 -8 3 -5 6 6 6 11 1 17 -2 13 -5z m1048 -4 c-3 -5 -17 -10 -31 -10 -13 0 -24 5 -24 10 0 6 14 10 31 10 17 0 28 -4 24 -10z m355 6 c0 -3 -4 -8 -10 -11 -5 -3 -10 -1 -10 4 0 6 5 11 10 11 6 0 10 -2 10 -4z m-575 -36 c-10 -11 -22 -17 -27 -14 -5 3 -1 12 9 20 27 20 39 17 18 -6z m525 16 c0 -3 -4 -8 -10 -11 -5 -3 -10 -1 -10 4 0 6 5 11 10 11 6 0 10 -2 10 -4z m113 -11 c-3 -9 -8 -14 -10 -11 -3 3 -2 9 2 15 9 16 15 13 8 -4z m-213 -15 c0 -5 -12 -10 -26 -10 -14 0 -23 4 -19 10 3 6 15 10 26 10 10 0 19 -4 19 -10z m-570 -40 c0 -5 12 -13 26 -16 l26 -7 -33 -14 c-26 -11 -34 -11 -40 -1 -5 7 -4 14 1 16 5 2 6 10 3 18 -3 8 0 14 6 14 6 0 11 -4 11 -10z m433 3 c-7 -2 -19 -2 -25 0 -7 3 -2 5 12 5 14 0 19 -2 13 -5z m157 -7 c0 -3 -4 -8 -10 -11 -5 -3 -10 -1 -10 4 0 6 5 11 10 11 6 0 10 -2 10 -4z m-1100 -101 c0 -5 -5 -3 -10 5 -5 8 -10 20 -10 25 0 6 5 3 10 -5 5 -8 10 -19 10 -25z m77 -17 c-3 -8 -6 -5 -6 6 -1 11 2 17 5 13 3 -3 4 -12 1 -19z m269 -25 c-6 -6 -36 9 -36 18 0 5 9 4 20 -3 10 -7 18 -14 16 -15z m-286 -13 c0 -5 -7 -7 -15 -4 -8 4 -15 8 -15 10 0 2 7 4 15 4 8 0 15 -4 15 -10z"/>
<path d="M2210 7330 c-16 -13 -20 -20 -10 -20 12 0 11 -3 -2 -17 -13 -12 -20 -14 -31 -5 -29 24 -274 -172 -411 -329 -36 -42 -66 -79 -66 -82 0 -3 10 -3 23 0 16 4 13 0 -13 -19 -21 -14 -37 -35 -41 -53 -4 -17 -7 -23 -8 -15 -2 20 -40 -27 -90 -110 -39 -67 -101 -185 -101 -195 0 -3 19 -3 43 -1 l42 5 -47 -11 c-28 -7 -48 -17 -48 -25 0 -7 4 -13 9 -13 5 0 11 -11 13 -25 6 -29 -16 -35 -31 -7 -8 15 -12 12 -25 -20 -9 -20 -13 -43 -10 -51 3 -8 -2 -21 -10 -30 -31 -31 -30 -64 3 -103 18 -20 30 -41 28 -47 -7 -23 -24 -16 -44 20 l-21 37 -11 -41 c-18 -65 -25 -133 -14 -133 5 0 15 -11 21 -25 11 -24 10 -25 -8 -15 -11 6 -21 16 -21 23 -1 12 -27 -117 -28 -140 -1 -12 36 -12 57 1 24 15 44 79 32 104 -5 13 -6 21 -1 18 9 -6 21 16 21 40 0 8 -6 11 -17 7 -14 -6 -13 -2 4 23 12 16 31 61 43 99 92 301 178 466 358 688 49 61 60 82 52 92 -9 10 -7 12 7 9 24 -6 209 160 205 184 -2 13 -1 14 6 3 8 -10 26 -2 87 40 43 29 104 65 137 81 64 30 72 40 31 38 -70 -5 -85 -1 -78 20 8 25 -3 25 -35 0z m-38 -92 c-9 -9 -15 -9 -24 0 -9 9 -7 12 12 12 19 0 21 -3 12 -12z m-250 -145 c-10 -4 -10 -8 -1 -19 7 -8 7 -14 1 -14 -16 0 -24 33 -10 41 7 4 15 5 18 2 3 -3 -1 -8 -8 -10z m-243 -345 c12 -16 11 -18 -10 -17 -13 0 -19 3 -12 5 7 3 9 13 6 22 -7 18 -5 17 16 -10z m-249 -398 c0 -5 -5 -10 -11 -10 -5 0 -7 5 -4 10 3 6 8 10 11 10 2 0 4 -4 4 -10z m-40 -384 c0 -8 -9 -24 -20 -37 l-19 -24 17 38 c17 40 22 45 22 23z"/>
<path d="M1465 7311 c-6 -11 9 -23 19 -14 9 9 7 23 -3 23 -6 0 -12 -4 -16 -9z"/>
<path d="M4275 7300 c-4 -6 -2 -17 4 -23 15 -15 25 -2 13 19 -7 12 -11 13 -17 4z"/>
<path d="M1435 7280 c-3 -5 -3 -14 0 -20 3 -5 0 -8 -7 -5 -7 3 -28 -13 -46 -35 l-33 -40 25 0 c16 0 26 6 26 15 0 19 29 19 54 0 29 -22 36 -19 36 18 0 49 -38 95 -55 67z"/>
<path d="M1854 7236 c-29 -29 -50 -66 -38 -66 14 0 85 82 78 89 -5 4 -23 -6 -40 -23z"/>
<path d="M2748 7200 c-3 -30 -3 -57 1 -60 9 -7 8 -307 -1 -316 -5 -4 -8 4 -8 18 0 22 -53 182 -111 333 l-19 50 4 -110 c3 -60 10 -160 16 -222 l11 -112 -36 -53 -35 -53 22 -18 c17 -14 32 -17 59 -13 34 6 38 4 53 -29 9 -19 22 -35 29 -35 9 0 9 -2 0 -8 -7 -4 -10 -17 -6 -30 3 -12 9 -19 14 -16 5 3 6 -2 3 -11 -4 -9 -1 -36 6 -60 12 -44 13 -45 54 -45 38 1 40 2 22 15 -24 18 -21 18 29 1 40 -14 40 -14 13 -21 -33 -8 -28 -25 5 -19 20 4 20 4 2 -5 -14 -6 -25 -4 -37 6 -18 16 -59 14 -65 -3 -2 -6 6 -15 19 -18 14 -5 18 -9 11 -13 -20 -8 -15 -23 7 -23 11 0 20 5 20 10 0 6 12 10 26 10 16 0 24 -5 22 -12 -3 -7 2 -19 10 -27 12 -12 12 -16 1 -20 -7 -2 -15 1 -17 8 -2 6 -8 11 -14 11 -6 0 -8 -7 -5 -15 5 -11 0 -13 -23 -8 -34 6 -37 -1 -16 -52 8 -19 17 -51 21 -72 3 -20 9 -40 13 -43 4 -3 15 -34 24 -70 9 -36 22 -78 29 -95 7 -16 11 -38 10 -47 -1 -10 3 -26 8 -37 19 -35 -8 -35 -57 0 -26 19 -57 32 -71 32 -20 -1 -22 0 -8 5 16 7 13 12 -22 40 -22 18 -49 32 -60 32 -14 0 -19 5 -15 15 7 18 6 18 -46 0 -28 -10 -47 -12 -59 -5 -13 7 -10 10 14 10 17 0 38 7 47 14 16 12 16 14 -5 32 -12 11 -38 32 -57 46 -30 22 -37 23 -49 11 -7 -8 -16 -11 -19 -8 -4 4 1 11 11 16 9 6 17 20 17 32 0 34 -20 98 -29 93 -4 -3 -5 9 -3 25 4 28 3 30 -24 24 -64 -15 -62 -13 -54 -55 6 -35 5 -40 -11 -40 -35 0 -197 63 -474 185 -25 11 -33 11 -49 -1 -11 -7 -18 -15 -15 -17 2 -1 61 -40 131 -86 103 -68 133 -82 155 -78 24 4 25 3 11 -7 -15 -11 -5 -20 78 -74 98 -65 112 -83 148 -194 4 -13 16 -18 47 -18 l41 0 -7 39 c-3 21 -3 41 2 44 4 3 42 -12 84 -33 103 -51 119 -56 120 -33 0 13 3 10 10 -8 7 -18 29 -36 74 -58 36 -17 68 -31 72 -31 5 0 19 -9 33 -20 l25 -20 -23 0 c-22 0 -23 -3 -19 -58 2 -32 11 -69 21 -85 20 -30 84 -54 113 -42 10 5 23 9 28 9 55 7 85 49 85 122 0 39 -5 51 -33 79 -18 18 -52 38 -75 44 l-41 12 -3 56 c-3 51 -6 58 -28 64 -24 7 -24 7 -2 8 21 1 23 5 20 54 -3 47 -5 52 -25 50 -13 -2 -23 2 -23 7 0 6 9 10 20 10 16 0 20 7 20 38 0 61 -12 112 -26 112 -7 0 -27 -12 -44 -26 -17 -15 -33 -24 -36 -22 -9 10 55 68 75 68 23 0 26 14 15 69 -4 17 -10 28 -15 25 -5 -3 -9 0 -9 5 0 6 4 11 9 11 16 0 1 123 -17 144 -9 11 -11 16 -4 12 14 -9 16 73 3 142 -9 43 -6 46 32 42 20 -2 43 15 58 41 8 16 2 22 -42 42 -44 20 -54 30 -68 67 -14 38 -23 46 -56 57 l-40 13 38 -4 c20 -3 37 -2 37 2 0 4 -22 75 -48 157 l-48 150 -6 -55z m166 -401 c-3 -5 -10 -7 -15 -3 -5 3 -7 10 -3 15 3 5 10 7 15 3 5 -3 7 -10 3 -15z m-131 -3 c-29 -7 -59 -18 -66 -25 -12 -9 -16 -8 -20 3 -6 16 50 34 108 34 21 0 15 -3 -22 -12z m55 -116 c-1 -16 -5 -30 -10 -30 -4 0 -8 14 -8 30 0 17 4 30 9 30 5 0 9 -13 9 -30z m-9 -109 c21 -9 27 -18 24 -32 -7 -25 -16 -24 -28 4 -11 23 -23 25 -64 12 -16 -5 -21 -4 -17 4 4 6 16 11 27 11 23 0 24 6 4 26 -8 9 -15 20 -15 26 0 6 9 -1 20 -14 10 -14 32 -31 49 -37z m-584 -351 c-3 -5 -12 -10 -18 -10 -7 0 -6 4 3 10 19 12 23 12 15 0z m212 -146 c-3 -3 -12 -4 -19 -1 -8 3 -5 6 6 6 11 1 17 -2 13 -5z m53 -8 c0 -3 -4 -8 -10 -11 -5 -3 -10 -1 -10 4 0 6 5 11 10 11 6 0 10 -2 10 -4z m400 -6 c0 -5 -4 -10 -10 -10 -5 0 -10 5 -10 10 0 6 5 10 10 10 6 0 10 -4 10 -10z m-290 -36 c0 -2 -9 -4 -21 -4 -11 0 -18 4 -14 10 5 8 35 3 35 -6z m325 -252 c-3 -3 -11 0 -18 7 -9 10 -8 11 6 5 10 -3 15 -9 12 -12z m95 -6 c0 -11 -19 -15 -25 -6 -3 5 1 10 9 10 9 0 16 -2 16 -4z m-130 -36 c0 -5 -2 -10 -4 -10 -3 0 -8 5 -11 10 -3 6 -1 10 4 10 6 0 11 -4 11 -10z m25 -80 c3 -6 -1 -7 -9 -4 -18 7 -21 14 -7 14 6 0 13 -4 16 -10z m115 6 c0 -3 -4 -8 -10 -11 -5 -3 -10 -1 -10 4 0 6 5 11 10 11 6 0 10 -2 10 -4z"/>
<path d="M4342 7236 c1 -10 8 -17 13 -17 15 1 12 24 -3 29 -9 3 -13 -2 -10 -12z"/>
<path d="M2290 7203 c-14 -9 -27 -18 -29 -19 -9 -7 103 -254 115 -254 11 0 74 41 74 48 0 4 -19 51 -42 104 -35 81 -47 99 -71 108 -16 5 -26 14 -22 20 9 14 3 13 -25 -7z"/>
<path d="M3835 7103 c-37 -65 -69 -121 -72 -125 -2 -4 14 -16 36 -28 l40 -20 29 43 c46 67 112 182 112 194 0 10 -59 53 -73 53 -3 0 -36 -53 -72 -117z m-10 -103 c3 -5 -1 -10 -9 -10 -9 0 -16 5 -16 10 0 6 4 10 9 10 6 0 13 -4 16 -10z"/>
<path d="M4378 7204 c-11 -10 83 -103 99 -97 11 4 2 18 -33 54 -48 49 -56 54 -66 43z"/>
<path d="M1424 7169 c-3 -5 -25 -9 -49 -9 -39 0 -46 -4 -74 -42 -23 -31 -28 -44 -19 -50 10 -5 8 -11 -7 -22 -11 -9 -24 -16 -30 -16 -11 -1 -145 -221 -145 -239 0 -15 11 -14 39 5 16 12 25 13 32 5 5 -6 6 -9 3 -6 -9 6 -44 -13 -44 -24 0 -15 123 -71 156 -71 27 0 36 6 49 31 15 29 15 32 -2 51 -18 20 -18 21 3 10 22 -12 34 -1 92 88 l22 35 -30 -35 c-23 -27 -33 -32 -39 -22 -7 12 -12 12 -29 1 -28 -18 -42 -3 -15 16 12 8 28 36 37 61 25 75 50 124 61 120 6 -2 8 -10 6 -17 -9 -34 -5 -43 25 -49 29 -6 36 -2 75 44 24 27 53 61 63 74 l19 24 -64 -4 c-58 -3 -65 -1 -74 19 -9 22 -51 37 -61 22z m86 -120 c0 -5 -4 -9 -10 -9 -5 0 -10 7 -10 16 0 8 5 12 10 9 6 -3 10 -10 10 -16z m-214 -149 c-1 -16 -4 -31 -7 -33 -45 -37 -110 -50 -125 -25 -5 8 -2 9 10 5 31 -12 119 43 109 69 -3 8 -1 14 5 14 5 0 9 -13 8 -30z m-51 -95 c-16 -8 -37 -14 -45 -14 -8 0 1 7 20 14 46 18 64 17 25 0z"/>
<path d="M1671 7049 c-73 -83 -96 -116 -72 -107 7 3 71 76 140 160 13 16 21 31 18 34 -2 3 -41 -37 -86 -87z"/>
<path d="M4510 7065 c0 -10 103 -135 111 -135 24 0 12 24 -37 79 -49 54 -74 73 -74 56z"/>
<path d="M1400 6948 c-35 -76 -24 -88 30 -33 28 28 32 39 24 52 -19 30 -34 25 -54 -19z"/>
<path d="M1507 6841 c-39 -61 -43 -71 -27 -71 16 0 84 110 74 120 -5 5 -24 -14 -47 -49z"/>
<path d="M4670 6878 c0 -18 18 -34 28 -24 3 4 -2 14 -11 23 -16 16 -17 16 -17 1z"/>
<path d="M4706 6822 c-7 -12 56 -112 72 -112 9 0 5 15 -14 50 -30 55 -49 76 -58 62z"/>
<path d="M1060 6723 c-19 -32 -80 -175 -80 -187 0 -2 15 -4 34 -4 19 0 40 -3 46 -7 7 -4 39 -9 71 -11 32 -1 63 -5 68 -9 13 -8 58 43 66 73 9 37 -39 85 -77 77 -16 -4 -28 -2 -28 4 0 5 10 11 22 13 39 6 30 26 -24 57 -29 17 -58 31 -65 31 -6 0 -21 -17 -33 -37z m70 -17 c0 -7 -50 -4 -55 4 -13 21 6 30 31 14 13 -9 24 -17 24 -18z m-48 -174 c-21 -6 -32 10 -25 36 6 23 6 23 23 -5 14 -24 15 -29 2 -31z m103 28 c4 -6 -5 -10 -19 -10 -14 0 -26 5 -26 10 0 6 9 10 19 10 11 0 23 -4 26 -10z"/>
<path d="M1406 6670 c-33 -71 -22 -85 16 -20 21 37 27 55 19 63 -7 7 -18 -6 -35 -43z"/>
<path d="M1240 6682 c0 -5 9 -17 21 -28 20 -18 21 -18 35 0 7 10 11 23 8 27 -7 12 -64 12 -64 1z"/>
<path d="M4806 6662 c-10 -17 44 -131 59 -126 10 4 9 16 -7 52 -27 61 -44 86 -52 74z"/>
<path d="M4434 6562 c-45 -31 -93 -66 -108 -77 l-26 -20 21 -42 21 -42 53 34 c109 69 165 108 165 114 0 13 -33 91 -39 91 -3 -1 -42 -27 -87 -58z m47 -49 c13 -16 12 -17 -3 -4 -10 7 -18 15 -18 17 0 8 8 3 21 -13z"/>
<path d="M3655 6584 c-77 -19 -164 -48 -185 -62 -14 -9 -28 -17 -31 -17 -38 -1 -189 -163 -161 -173 9 -3 9 -7 -1 -17 -7 -7 -15 -11 -20 -8 -4 2 -10 -3 -13 -11 -7 -18 13 -40 45 -51 32 -10 20 -16 -17 -9 -18 4 -29 10 -26 15 3 5 1 9 -4 9 -16 0 -24 -33 -10 -42 11 -6 11 -8 0 -8 -15 0 -42 -59 -42 -91 0 -12 3 -19 7 -16 9 10 35 -31 28 -43 -3 -6 -12 -10 -18 -10 -8 0 -8 3 2 9 9 6 10 11 2 15 -6 4 -15 4 -21 1 -14 -9 -12 -42 3 -48 7 -4 6 -6 -4 -6 -25 -1 -35 -119 -18 -213 6 -40 14 -67 16 -60 3 6 9 12 15 12 7 0 8 -14 4 -37 -4 -28 1 -58 21 -112 l27 -73 60 5 c41 4 55 2 44 -4 -9 -5 -35 -10 -56 -12 -37 -2 -39 -3 -29 -24 6 -13 15 -23 22 -23 6 0 20 -7 31 -16 18 -15 18 -15 -8 -10 l-28 6 22 -52 c128 -318 163 -478 135 -634 -28 -157 -100 -260 -223 -320 -64 -32 -84 -37 -147 -38 -62 0 -80 4 -119 27 -58 34 -85 70 -99 136 -17 80 7 167 68 249 17 22 22 39 18 55 -7 22 -7 22 8 2 14 -19 16 -19 34 -3 10 9 44 29 75 43 51 23 56 28 49 48 -5 13 -16 21 -25 19 -19 -3 -22 14 -4 20 8 3 1 17 -20 37 -20 20 -38 31 -48 27 -8 -3 -13 -2 -10 3 15 23 -79 27 -148 6 -61 -19 -83 -18 -36 1 l35 14 -40 -6 c-22 -3 -62 -18 -89 -32 -52 -28 -120 -107 -112 -129 3 -7 0 -12 -6 -10 -6 1 -13 -4 -15 -11 -3 -8 1 -10 11 -6 9 3 16 2 16 -4 0 -6 3 -17 6 -26 4 -11 1 -16 -11 -16 -11 0 -15 5 -11 15 4 12 2 13 -13 6 -32 -18 -42 -61 -13 -61 13 -1 11 -4 -8 -15 -14 -8 -20 -15 -15 -15 6 0 4 -4 -3 -8 -7 -5 -15 -38 -19 -75 l-6 -67 37 0 c22 0 35 -4 31 -10 -3 -5 -19 -10 -36 -10 -22 0 -29 -5 -29 -20 0 -15 9 -22 30 -26 37 -8 52 -25 39 -44 -8 -13 -12 -11 -26 8 -25 36 -43 28 -36 -15 15 -98 86 -228 161 -295 49 -44 128 -86 197 -104 63 -17 70 -17 56 0 -10 12 -8 13 9 9 12 -3 24 -12 27 -19 4 -11 31 -14 114 -14 60 0 109 4 109 9 0 4 10 6 23 4 30 -6 138 30 206 69 123 70 234 189 293 314 101 215 110 537 22 773 -13 35 -36 91 -51 124 l-27 59 -135 -5 c-87 -3 -116 -2 -81 3 30 4 90 8 132 9 l77 1 -63 129 c-35 71 -69 151 -76 179 -12 46 -15 50 -34 41 -18 -9 -19 -8 -5 3 12 10 15 35 15 115 -1 57 -2 103 -3 103 -1 0 -13 -12 -27 -27 -14 -15 -29 -24 -33 -19 -4 4 0 12 8 17 14 7 20 19 34 72 2 4 3 12 4 17 0 6 6 10 11 10 6 0 8 -12 5 -27 -3 -16 2 -8 11 17 9 25 29 64 45 87 34 52 17 63 -41 25 -2 -2 2 -7 10 -12 8 -5 11 -12 7 -16 -3 -4 -13 -1 -22 6 -19 16 -32 5 -16 -14 9 -11 8 -15 -5 -20 -24 -9 -36 3 -30 29 4 16 1 25 -10 29 -11 4 -13 10 -7 19 15 19 16 80 1 75 -12 -4 -38 14 -38 26 0 16 35 3 56 -20 17 -18 22 -32 18 -49 -8 -31 15 -42 48 -24 13 7 38 12 56 10 42 -2 39 19 -4 32 -53 16 -57 17 -53 22 3 2 33 -2 68 -11 60 -14 66 -13 97 5 19 11 34 17 34 13 0 -4 42 -6 92 -5 51 1 84 0 73 -3 -11 -3 -31 -7 -44 -10 l-24 -5 26 -27 c34 -36 48 -76 46 -131 -2 -60 23 -121 50 -121 16 0 21 6 21 25 0 16 6 25 15 25 16 0 18 -14 6 -75 -7 -39 -7 -39 -14 -12 -9 33 -41 37 -59 7 -13 -20 -38 -28 -38 -12 0 5 -6 17 -14 27 -12 17 -17 15 -69 -37 l-56 -55 19 -31 c47 -77 171 -95 278 -41 116 58 182 178 182 333 0 179 -90 329 -240 400 -60 28 -74 30 -185 33 -66 1 -129 0 -140 -3z m85 -30 c0 -2 -7 -4 -15 -4 -8 0 -15 4 -15 10 0 5 7 7 15 4 8 -4 15 -8 15 -10z m90 -20 c23 -9 39 -18 37 -21 -3 -2 -26 5 -53 16 -27 11 -43 20 -37 20 7 1 31 -6 53 -15z m-135 -4 c4 -6 -6 -7 -27 -3 -44 8 -48 13 -10 13 17 0 34 -4 37 -10z m315 -70 c0 -5 -2 -10 -4 -10 -3 0 -8 5 -11 10 -3 6 -1 10 4 10 6 0 11 -4 11 -10z m-625 -48 c-3 -3 -11 0 -18 7 -9 10 -8 11 6 5 10 -3 15 -9 12 -12z m338 -34 c17 -30 17 -31 0 -17 -21 16 -33 31 -33 42 0 17 16 5 33 -25z m304 26 c-3 -3 -12 -4 -19 -1 -8 3 -5 6 6 6 11 1 17 -2 13 -5z m-530 -30 c-3 -3 -12 -4 -19 -1 -8 3 -5 6 6 6 11 1 17 -2 13 -5z m469 -60 c-11 -8 -27 -14 -35 -13 -9 0 -4 5 12 11 15 5 27 15 27 21 0 5 3 7 7 3 5 -4 -1 -14 -11 -22z m-646 -14 c0 -5 -2 -10 -4 -10 -3 0 -8 5 -11 10 -3 6 -1 10 4 10 6 0 11 -4 11 -10z m70 -10 c0 -5 -5 -10 -11 -10 -5 0 -7 5 -4 10 3 6 8 10 11 10 2 0 4 -4 4 -10z m50 -20 c0 -5 -5 -10 -11 -10 -5 0 -7 5 -4 10 3 6 8 10 11 10 2 0 4 -4 4 -10z m-10 -41 c0 -5 -7 -9 -15 -9 -15 0 -20 12 -9 23 8 8 24 -1 24 -14z m-84 -185 c-13 -37 -15 -39 -52 -36 -22 2 -43 8 -49 14 -10 11 -5 10 61 -8 18 -5 23 1 34 42 8 26 15 43 17 38 2 -6 -3 -28 -11 -50z m734 -5 c0 -10 -4 -21 -10 -24 -6 -3 -10 5 -10 19 0 13 -3 33 -6 43 -5 16 -4 16 10 -1 9 -11 16 -28 16 -37z m100 41 c0 -5 -8 -10 -18 -10 -10 0 -22 -3 -28 -7 -5 -5 -1 0 9 10 21 19 37 22 37 7z m-730 -40 c0 -5 -4 -10 -10 -10 -5 0 -10 5 -10 10 0 6 5 10 10 10 6 0 10 -4 10 -10z m-20 -44 c0 -2 -7 -7 -16 -10 -8 -3 -12 -2 -9 4 6 10 25 14 25 6z m-50 -31 c-7 -8 -18 -15 -24 -15 -6 0 -2 7 8 15 25 19 32 19 16 0z m787 -1 c-3 -3 -12 -4 -19 -1 -8 3 -5 6 6 6 11 1 17 -2 13 -5z m-72 -14 c3 -5 1 -10 -4 -10 -6 0 -11 5 -11 10 0 6 2 10 4 10 3 0 8 -4 11 -10z m-805 -46 c0 -8 -5 -12 -10 -9 -6 4 -8 11 -5 16 9 14 15 11 15 -7z m90 8 c0 -5 -13 -7 -30 -4 -16 2 -30 6 -30 8 0 2 14 4 30 4 17 0 30 -4 30 -8z m94 -16 c-6 -16 -24 -23 -24 -8 0 10 22 33 27 28 2 -2 1 -11 -3 -20z m476 -11 c-7 -8 -17 -15 -22 -15 -6 0 -5 7 2 15 7 8 17 15 22 15 6 0 5 -7 -2 -15z m-40 -25 c0 -5 -4 -10 -9 -10 -6 0 -13 5 -16 10 -3 6 1 10 9 10 9 0 16 -4 16 -10z m-576 -18 c2 -4 -5 -9 -17 -9 -17 -2 -19 0 -7 7 18 12 18 12 24 2z m116 -6 c0 -22 -55 -37 -77 -21 -16 12 -15 14 17 23 49 14 60 14 60 -2z m-35 -66 c-6 -9 -9 -9 -16 1 -10 17 0 34 13 21 6 -6 7 -16 3 -22z m-135 5 c0 -9 -6 -12 -15 -9 -8 4 -15 10 -15 15 0 5 7 9 15 9 8 0 15 -7 15 -15z m17 -90 c0 -8 -7 -15 -15 -15 -12 0 -12 3 -2 15 7 8 13 15 15 15 1 0 2 -7 2 -15z m-47 -19 c0 -2 -7 -6 -15 -10 -8 -3 -15 -1 -15 4 0 6 7 10 15 10 8 0 15 -2 15 -4z m65 -56 c-3 -5 -12 -10 -18 -10 -7 0 -6 4 3 10 19 12 23 12 15 0z m60 -9 c-3 -6 -14 -11 -23 -11 -13 0 -13 2 4 14 21 15 30 14 19 -3z m85 -59 c0 -4 -16 -6 -35 -4 -19 2 -35 6 -35 8 0 2 16 4 35 4 19 0 35 -4 35 -8z m86 -40 c-10 -2 -22 0 -28 6 -6 6 0 7 19 4 21 -5 23 -7 9 -10z m-79 -174 c-3 -8 -6 -5 -6 6 -1 11 2 17 5 13 3 -3 4 -12 1 -19z m-63 -13 c3 -8 1 -15 -4 -15 -6 0 -10 7 -10 15 0 8 2 15 4 15 2 0 6 -7 10 -15z m283 -67 c-3 -8 -6 -5 -6 6 -1 11 2 17 5 13 3 -3 4 -12 1 -19z m-144 5 c-7 -2 -21 -2 -30 0 -10 3 -4 5 12 5 17 0 24 -2 18 -5z m177 -64 c0 -12 -37 -12 -45 0 -3 5 3 11 12 13 21 5 33 0 33 -13z m30 1 c0 -5 -4 -10 -10 -10 -5 0 -10 5 -10 10 0 6 5 10 10 10 6 0 10 -4 10 -10z m-213 -56 c-3 -3 -12 -4 -19 -1 -8 3 -5 6 6 6 11 1 17 -2 13 -5z m103 -14 c0 -5 -5 -10 -11 -10 -5 0 -7 5 -4 10 3 6 8 10 11 10 2 0 4 -4 4 -10z m-135 -30 c3 -5 2 -10 -4 -10 -5 0 -13 5 -16 10 -3 6 -2 10 4 10 5 0 13 -4 16 -10z m-725 -40 c8 -5 12 -11 9 -14 -3 -3 -14 1 -25 9 -21 16 -8 20 16 5z m90 -22 c0 -19 -16 -5 -17 14 -2 18 0 20 7 8 5 -8 10 -18 10 -22z m65 -38 c-3 -5 -14 -10 -23 -9 -14 0 -13 2 3 9 27 11 27 11 20 0z m48 3 c-7 -2 -19 -2 -25 0 -7 3 -2 5 12 5 14 0 19 -2 13 -5z m-6 -40 c3 -7 -4 -9 -16 -6 -12 3 -18 9 -15 15 7 11 26 6 31 -9z m-232 -43 c-3 -5 -11 -10 -16 -10 -6 0 -7 5 -4 10 3 6 11 10 16 10 6 0 7 -4 4 -10z m-40 -10 c-3 -5 -14 -10 -23 -10 -15 0 -15 2 -2 10 20 13 33 13 25 0z m819 -6 c3 -8 2 -12 -4 -9 -6 3 -10 10 -10 16 0 14 7 11 14 -7z m-687 -9 c0 -8 -4 -12 -9 -9 -5 3 -6 10 -3 15 9 13 12 11 12 -6z m-87 -9 c0 -3 -4 -8 -10 -11 -5 -3 -10 -1 -10 4 0 6 5 11 10 11 6 0 10 -2 10 -4z m30 -46 c0 -5 -2 -10 -4 -10 -3 0 -8 5 -11 10 -3 6 -1 10 4 10 6 0 11 -4 11 -10z m-120 -15 c-7 -8 -16 -12 -21 -9 -13 8 -1 24 18 24 13 0 13 -3 3 -15z m15 -40 l60 -15 -59 5 c-32 2 -64 9 -69 14 -14 14 -5 13 68 -4z m915 -50 c-7 -8 -20 -15 -29 -15 -12 0 -10 5 9 20 28 21 39 18 20 -5z m-110 -34 c0 -6 -4 -13 -10 -16 -5 -3 -10 1 -10 9 0 9 5 16 10 16 6 0 10 -4 10 -9z m-841 -55 c10 -12 8 -13 -8 -9 -12 3 -21 9 -21 14 0 14 16 11 29 -5z m11 -81 c-7 -8 -18 -15 -24 -15 -6 0 -2 7 8 15 25 19 32 19 16 0z m64 -61 c3 -8 2 -12 -4 -9 -6 3 -10 10 -10 16 0 14 7 11 14 -7z m136 -34 c-32 -25 -45 -26 -22 -1 9 11 24 20 32 20 10 0 6 -6 -10 -19z m566 -22 l19 -23 -25 20 c-14 11 -27 21 -29 22 -2 2 0 3 6 3 5 0 18 -10 29 -22z m-746 -39 c0 -6 -4 -7 -10 -4 -5 3 -10 11 -10 16 0 6 5 7 10 4 6 -3 10 -11 10 -16z m50 -50 c0 -5 -4 -9 -10 -9 -5 0 -10 7 -10 16 0 8 5 12 10 9 6 -3 10 -10 10 -16z m205 -19 c4 -6 11 -8 16 -5 5 4 9 -1 9 -10 0 -23 -44 -16 -48 8 -4 18 13 24 23 7z m-45 -20 c0 -5 -4 -10 -10 -10 -5 0 -10 5 -10 10 0 6 5 10 10 10 6 0 10 -4 10 -10z m160 0 c0 -5 -7 -10 -15 -10 -8 0 -15 5 -15 10 0 6 7 10 15 10 8 0 15 -4 15 -10z m120 3 c0 -17 -19 -35 -29 -29 -18 12 -12 36 9 36 11 0 20 -3 20 -7z m-260 -23 c0 -5 -7 -10 -16 -10 -8 0 -12 5 -9 10 3 6 10 10 16 10 5 0 9 -4 9 -10z m-45 -20 c-3 -5 -12 -10 -18 -10 -7 0 -6 4 3 10 19 12 23 12 15 0z m210 0 c3 -5 1 -10 -4 -10 -6 0 -11 5 -11 10 0 6 2 10 4 10 3 0 8 -4 11 -10z m-50 -30 c3 -5 1 -10 -4 -10 -6 0 -11 5 -11 10 0 6 2 10 4 10 3 0 8 -4 11 -10z m95 -40 c6 -11 8 -20 5 -20 -3 0 -14 9 -25 20 -15 15 -16 20 -5 20 8 0 19 -9 25 -20z m-100 -10 c0 -6 10 -15 23 -20 12 -5 16 -9 9 -9 -19 -1 -52 18 -52 29 0 6 5 10 10 10 6 0 10 -5 10 -10z m198 -35 c-3 -3 -9 2 -12 12 -6 14 -5 15 5 6 7 -7 10 -15 7 -18z"/>
<path d="M1350 6559 c0 -11 5 -17 10 -14 6 3 10 13 10 21 0 8 -4 14 -10 14 -5 0 -10 -9 -10 -21z"/>
<path d="M1668 6549 c-10 -17 -18 -34 -18 -38 0 -8 104 -81 115 -81 4 0 3 5 0 11 -4 5 -4 22 0 37 7 25 8 26 16 7 8 -17 9 -16 6 8 -3 15 0 27 4 27 5 0 9 -8 9 -17 0 -10 9 -32 19 -50 11 -17 16 -33 11 -35 -5 -2 -3 -11 4 -20 8 -11 17 -14 27 -7 12 8 12 10 -1 20 -11 8 -7 9 18 4 31 -6 45 6 22 20 -19 12 -10 26 12 19 20 -6 21 -5 9 10 -8 9 -16 15 -18 12 -2 -2 -30 12 -61 30 -31 19 -68 38 -82 41 -14 4 -31 12 -38 20 -21 20 -35 16 -54 -18z"/>
<path d="M994 6513 c-12 -2 -26 -15 -32 -28 -18 -40 -43 -145 -37 -155 3 -6 2 -10 -3 -10 -13 0 -27 -59 -52 -211 -28 -175 -27 -191 13 -212 l32 -17 -35 5 c-32 4 -35 3 -36 -19 -1 -16 4 -27 15 -29 14 -4 14 -5 -1 -6 -13 -1 -18 -10 -18 -31 0 -25 5 -30 33 -35 18 -4 38 -5 44 -3 6 2 11 -1 12 -7 0 -10 -20 -10 -65 0 -20 4 -21 0 -22 -70 -1 -41 2 -76 7 -79 4 -3 23 10 41 29 31 32 32 35 13 35 -12 0 -24 4 -28 9 -3 6 6 7 22 2 16 -4 33 -6 40 -4 7 3 20 0 30 -6 16 -9 15 -10 -7 -11 -37 0 -110 -74 -110 -111 0 -21 6 -32 23 -39 17 -7 18 -9 5 -9 -23 -1 -23 -29 1 -157 33 -171 36 -179 79 -197 l37 -16 -32 5 c-21 4 -33 1 -33 -5 0 -16 71 -234 80 -246 4 -5 13 -28 20 -50 19 -62 128 -269 199 -378 55 -84 66 -97 85 -91 17 5 19 4 9 -6 -9 -10 -9 -19 2 -40 18 -35 41 -54 50 -40 3 5 11 10 18 10 6 0 2 -6 -8 -14 -18 -13 -16 -17 42 -82 116 -130 147 -156 198 -164 43 -7 47 -5 56 17 5 13 17 26 26 29 10 3 27 10 38 16 18 10 18 9 7 -5 -8 -9 -23 -17 -35 -19 -14 -2 -23 -11 -25 -25 -3 -17 4 -24 30 -33 31 -9 30 -10 -14 -5 -27 2 -60 8 -75 11 l-28 7 20 -22 c11 -13 40 -37 65 -55 37 -28 52 -32 84 -28 27 3 37 1 32 -7 -4 -6 -19 -11 -33 -11 l-26 0 27 -21 27 -21 27 23 27 24 -24 -27 -23 -27 84 -55 c77 -49 199 -116 213 -116 3 0 5 10 6 23 1 18 3 16 11 -10 9 -28 22 -36 109 -72 54 -23 100 -41 102 -41 11 0 13 50 3 61 -8 8 -8 13 2 16 38 14 63 73 43 105 -9 15 -8 18 8 18 11 0 21 -6 24 -12 7 -21 17 -4 11 19 -4 15 -24 28 -62 43 -32 12 -67 26 -80 31 -13 5 -21 5 -18 0 6 -10 -52 -21 -71 -14 -22 9 -3 23 30 23 30 0 27 2 -28 29 -33 16 -96 52 -140 79 -65 40 -84 48 -103 41 -30 -12 -62 -11 -62 0 0 5 6 9 13 8 6 0 23 1 37 2 l25 2 -30 22 c-113 83 -273 230 -351 321 -32 37 -60 63 -62 57 -2 -6 -8 -8 -14 -5 -7 4 -6 9 2 14 9 6 5 18 -16 45 -28 38 -29 38 -36 14 -7 -21 -7 -21 -4 4 3 22 -12 53 -56 124 -95 151 -205 402 -244 558 -8 33 -18 67 -21 75 -3 8 -7 24 -8 35 -17 119 -39 179 -71 192 -8 3 -14 17 -14 32 l1 26 13 -30 c7 -17 21 -36 30 -44 16 -13 17 -11 12 35 -3 27 -8 80 -11 118 -3 39 -7 71 -9 73 -2 2 -13 -11 -24 -29 -18 -28 -19 -35 -7 -59 24 -46 -1 -53 -40 -12 -28 31 -31 43 -12 43 6 0 22 18 35 41 13 22 30 43 38 46 9 3 14 19 14 44 0 32 -4 39 -19 39 -23 0 -34 -23 -18 -39 15 -15 -4 -15 -38 1 -33 15 -30 47 5 65 14 7 19 13 12 13 -7 0 -10 5 -7 10 10 16 38 12 32 -4 -3 -8 1 -17 9 -20 23 -9 27 -7 20 9 -3 8 -1 15 4 15 6 0 10 16 10 35 0 19 7 82 16 141 13 89 13 108 2 115 -10 7 -9 9 3 9 23 0 30 75 11 113 -18 35 -8 109 14 100 10 -4 12 0 8 10 -8 21 -34 5 -57 -34 -9 -16 -23 -29 -32 -29 -13 0 -13 3 -3 22 7 12 21 30 31 40 18 19 25 112 8 123 -5 3 -21 0 -35 -6 -29 -13 -49 -4 -26 11 13 9 13 10 0 8 -8 0 -25 -3 -36 -5z m16 -73 c0 -5 -2 -10 -4 -10 -3 0 -8 5 -11 10 -3 6 -1 10 4 10 6 0 11 -4 11 -10z m13 -147 c-7 -2 -19 -2 -25 0 -7 3 -2 5 12 5 14 0 19 -2 13 -5z m-63 -389 c0 -2 -7 -4 -15 -4 -8 0 -15 4 -15 10 0 5 7 7 15 4 8 -4 15 -8 15 -10z m25 -54 c-11 -5 -31 -8 -45 -8 l-25 0 25 8 c14 4 34 8 45 8 l20 1 -20 -9z m-30 -68 c-3 -3 -11 0 -18 7 -9 10 -8 11 6 5 10 -3 15 -9 12 -12z m12 -258 c-3 -3 -12 -4 -19 -1 -8 3 -5 6 6 6 11 1 17 -2 13 -5z m21 -171 c-14 -18 -19 -12 -11 16 4 16 8 19 14 10 4 -7 3 -19 -3 -26z m-34 -28 c-4 -11 1 -15 17 -17 39 -2 63 2 69 12 4 6 21 3 44 -8 l37 -18 -73 -2 c-49 -1 -83 3 -102 13 -15 8 -36 16 -45 16 -9 1 0 5 19 9 19 4 36 8 37 9 1 0 0 -6 -3 -14z m51 -5 c3 -5 2 -10 -4 -10 -5 0 -13 5 -16 10 -3 6 -2 10 4 10 5 0 13 -4 16 -10z m75 -224 c0 -2 -9 -6 -20 -9 -11 -3 -20 -1 -20 4 0 5 9 9 20 9 11 0 20 -2 20 -4z m47 -18 c15 -6 35 -10 43 -9 12 1 11 -1 -2 -12 -25 -20 -22 -30 5 -24 21 6 21 5 3 -8 -10 -8 -23 -12 -27 -9 -5 3 -9 -5 -10 -18 0 -22 -1 -22 -9 -3 -5 13 -3 28 5 41 12 19 11 22 -18 37 -38 18 -31 22 10 5z m-18 -59 c-11 -7 -11 -9 -1 -9 7 0 10 -5 6 -11 -10 -16 -28 6 -20 26 3 9 11 13 17 9 8 -4 7 -9 -2 -15z m38 -231 c-3 -7 -5 -2 -5 12 0 14 2 19 5 13 2 -7 2 -19 0 -25z m3 -73 c0 -2 -10 -10 -22 -16 -21 -11 -22 -11 -9 4 13 16 31 23 31 12z m270 -289 c0 -3 -4 -8 -10 -11 -5 -3 -10 -1 -10 4 0 6 5 11 10 11 6 0 10 -2 10 -4z m86 -126 c13 0 24 -5 24 -11 0 -28 -109 29 -155 81 -11 13 9 2 44 -23 35 -26 74 -47 87 -47z m20 -96 c18 -14 18 -14 -6 -3 -31 14 -36 19 -24 19 6 0 19 -7 30 -16z m239 -49 c0 -20 -2 -22 -14 -11 -7 8 -10 19 -7 25 12 18 21 12 21 -14z m60 -45 c-3 -5 -11 -10 -16 -10 -6 0 -7 5 -4 10 3 6 11 10 16 10 6 0 7 -4 4 -10z m-49 -45 c-11 -8 -25 -15 -30 -15 -6 1 0 7 14 15 32 19 40 18 16 0z m151 -91 c-3 -3 -12 -4 -19 -1 -8 3 -5 6 6 6 11 1 17 -2 13 -5z m238 -85 c-4 -5 -13 -9 -21 -9 -11 0 -13 -6 -9 -20 5 -16 2 -20 -14 -20 -29 0 -26 20 6 46 27 21 50 23 38 3z m-267 -8 c-9 -15 -8 -24 7 -48 15 -22 15 -25 2 -15 -23 19 -31 50 -17 67 18 21 22 18 8 -4z m112 -41 c-13 -24 -27 -33 -39 -25 -11 6 30 53 42 48 4 -3 3 -13 -3 -23z m-60 16 c0 -3 -4 -8 -10 -11 -5 -3 -10 -1 -10 4 0 6 5 11 10 11 6 0 10 -2 10 -4z m257 -32 c-3 -3 -12 -4 -19 -1 -8 3 -5 6 6 6 11 1 17 -2 13 -5z m108 -4 c4 -6 -6 -7 -27 -3 -44 8 -48 13 -10 13 17 0 34 -4 37 -10z m-255 -10 c0 -5 -5 -10 -11 -10 -5 0 -7 5 -4 10 3 6 8 10 11 10 2 0 4 -4 4 -10z m90 -4 c0 -3 -4 -8 -10 -11 -5 -3 -10 -1 -10 4 0 6 5 11 10 11 6 0 10 -2 10 -4z m190 -76 c0 -5 -7 -10 -15 -10 -8 0 -15 5 -15 10 0 6 7 10 15 10 8 0 15 -4 15 -10z"/>
<path d="M4872 6489 c2 -6 8 -10 13 -10 5 0 11 4 13 10 2 6 -4 11 -13 11 -9 0 -15 -5 -13 -11z"/>
<path d="M1129 6473 c0 -10 -2 -26 -4 -35 -4 -22 20 -31 35 -12 19 22 43 18 37 -6 -3 -12 -1 -18 5 -14 5 3 7 17 4 30 -4 15 -2 24 6 24 6 0 3 7 -8 15 -28 21 -74 20 -75 -2z"/>
<path d="M1296 6448 c-23 -54 -30 -88 -17 -88 6 0 13 12 17 28 3 15 10 40 16 55 16 41 1 46 -16 5z"/>
<path d="M5231 6442 c-6 -11 -7 -23 -3 -27 4 -5 2 -5 -5 -1 -6 3 -14 2 -17 -3 -11 -17 33 -19 48 -2 12 13 12 19 1 34 -13 18 -14 18 -24 -1z"/>
<path d="M4900 6413 c5 -16 16 -52 25 -81 9 -28 21 -49 26 -46 6 3 8 13 5 22 -2 10 -12 43 -20 75 -10 35 -22 57 -31 57 -11 0 -12 -6 -5 -27z"/>
<path d="M5256 6382 c-3 -5 -18 -8 -34 -6 -24 3 -31 -3 -50 -39 -40 -75 -30 -90 57 -89 l56 0 -40 -10 c-29 -8 -55 -8 -98 1 -33 7 -61 10 -64 7 -7 -7 16 -46 27 -46 6 0 10 8 11 18 0 14 2 14 8 -3 5 -12 4 -23 -2 -26 -5 -4 -7 -19 -5 -33 3 -14 2 -26 -2 -26 -4 0 -5 -11 -2 -25 2 -14 5 -25 6 -25 1 0 40 16 86 35 47 19 93 35 103 35 21 0 21 -8 -7 118 -23 100 -37 134 -50 114z m-5 -90 c-7 -2 -18 1 -23 6 -8 8 -4 9 13 5 13 -4 18 -8 10 -11z m29 -97 c-27 -15 -70 -20 -70 -7 0 4 14 9 32 10 18 2 34 5 37 7 2 3 9 5 15 5 6 -1 0 -7 -14 -15z m-93 -1 c-3 -3 -12 -4 -19 -1 -8 3 -5 6 6 6 11 1 17 -2 13 -5z"/>
<path d="M9241 6226 c-37 -78 -80 -160 -94 -181 -23 -33 -24 -41 -12 -48 17 -9 35 -1 35 15 0 7 10 22 22 35 18 20 19 23 5 23 -9 0 -17 5 -17 10 0 6 12 10 26 10 15 0 23 -4 19 -10 -9 -15 13 -40 35 -40 28 0 49 32 95 147 59 147 59 141 2 163 l-47 18 -69 -142z m99 121 c0 -2 -10 -12 -21 -23 -22 -19 -22 -19 -8 4 12 19 29 30 29 19z m20 -87 c0 -5 -4 -10 -9 -10 -6 0 -13 5 -16 10 -3 6 1 10 9 10 9 0 16 -4 16 -10z m-85 -180 c3 -5 2 -10 -4 -10 -5 0 -13 5 -16 10 -3 6 -2 10 4 10 5 0 13 -4 16 -10z"/>
<path d="M5101 6332 c-29 -27 -38 -51 -25 -64 13 -13 40 6 57 39 25 50 8 64 -32 25z"/>
<path d="M1246 6288 c-10 -38 -7 -44 10 -19 11 15 13 26 6 33 -6 6 -11 1 -16 -14z"/>
<path d="M4958 6234 c-7 -12 24 -180 36 -191 12 -11 -1 117 -17 163 -8 21 -16 33 -19 28z"/>
<path d="M1221 6193 c-18 -73 -22 -113 -11 -113 5 0 10 6 10 13 1 6 7 38 14 69 8 32 10 60 6 63 -5 3 -13 -11 -19 -32z"/>
<path d="M9222 6018 c-5 -7 -11 -22 -13 -33 -3 -12 -16 -24 -37 -30 -36 -10 -44 -35 -11 -35 16 0 19 -4 14 -22 -4 -13 -13 -33 -21 -45 -20 -31 -18 -49 2 -32 28 23 66 90 60 105 -3 8 -1 14 4 14 6 0 10 7 10 15 0 8 6 15 14 15 20 0 32 40 15 51 -19 12 -25 11 -37 -3z"/>
<path d="M1186 5988 c-3 -13 -8 -52 -11 -87 -5 -48 -3 -62 6 -59 7 2 14 15 15 29 10 106 11 139 3 139 -5 0 -11 -10 -13 -22z"/>
<path d="M1370 5875 c-7 -9 -19 -14 -27 -11 -17 7 -16 1 3 -32 l16 -27 -19 24 c-34 41 -43 19 -43 -103 0 -117 6 -136 44 -136 20 0 20 0 0 -14 -14 -11 -21 -11 -27 -3 -4 7 -7 -3 -5 -23 2 -19 7 -38 12 -42 6 -4 5 -12 -2 -20 -12 -15 -5 -58 10 -58 5 0 6 10 3 21 -5 15 -4 19 5 14 6 -4 9 -17 6 -30 -7 -28 28 -77 49 -68 11 4 13 1 9 -11 -8 -21 -16 -20 -49 6 l-27 21 7 -34 c19 -97 101 -329 154 -437 55 -111 147 -262 175 -287 6 -5 17 -22 25 -36 26 -52 101 -128 119 -123 13 4 14 3 4 -4 -24 -17 252 -263 278 -247 13 8 50 -17 50 -35 0 -33 217 -142 385 -195 170 -53 294 -76 489 -92 61 -5 68 -4 63 11 -9 23 39 22 52 -1 8 -14 12 -15 19 -5 7 10 11 10 22 -3 9 -10 22 -14 39 -11 14 3 62 8 106 11 44 3 95 8 114 12 32 5 33 7 27 42 -3 20 -6 41 -6 47 0 11 -48 6 -129 -12 -22 -5 -22 -6 -7 -23 16 -17 16 -19 1 -25 -22 -8 -25 -8 -25 5 0 5 5 7 10 4 15 -9 12 4 -4 21 -17 16 -56 19 -56 4 0 -5 -7 -10 -16 -10 -9 0 -12 5 -8 12 5 8 2 9 -10 5 -10 -4 -41 -7 -69 -7 -37 0 -48 -3 -37 -10 19 -12 4 -13 -19 -1 -14 8 -229 41 -265 41 -5 0 0 -10 12 -23 12 -13 22 -27 22 -33 -1 -5 -11 3 -23 17 -35 42 -68 58 -120 57 -26 0 -55 6 -63 13 -14 11 -74 21 -74 12 0 -2 14 -9 30 -14 28 -10 43 -39 20 -39 -5 0 -10 6 -10 14 0 21 -71 32 -82 12 -14 -25 -25 -19 -25 14 0 30 12 41 19 18 4 -12 28 -3 28 12 0 10 -117 52 -147 52 -13 0 -23 4 -23 10 0 5 -4 7 -9 4 -5 -4 -20 -2 -33 3 -20 9 -21 10 -3 10 11 1 -13 20 -60 46 -44 25 -85 43 -92 41 -6 -3 -10 0 -7 7 2 7 -41 45 -97 87 -106 78 -238 210 -317 317 -27 37 -49 58 -53 52 -4 -7 -9 -8 -13 -1 -3 6 -1 12 5 14 5 2 -13 39 -42 82 -50 77 -117 211 -154 309 -15 40 -22 48 -38 43 -18 -4 -19 -4 -5 11 14 14 14 20 1 59 -11 31 -20 44 -34 44 -10 0 -19 5 -19 10 0 6 7 10 15 10 21 0 19 30 -2 46 -10 7 -13 14 -7 14 20 0 3 48 -23 65 -14 9 -22 19 -19 22 3 3 13 0 22 -8 16 -13 17 -10 10 46 -4 33 -12 98 -17 145 -6 47 -7 131 -3 188 3 56 4 102 1 102 -2 0 -10 -7 -17 -15z m57 -665 c14 -11 21 -20 15 -20 -12 0 -60 39 -49 40 5 0 20 -9 34 -20z m253 -560 c0 -5 -4 -10 -10 -10 -5 0 -10 5 -10 10 0 6 5 10 10 10 6 0 10 -4 10 -10z m300 -270 c0 -5 -2 -10 -4 -10 -3 0 -8 5 -11 10 -3 6 -1 10 4 10 6 0 11 -4 11 -10z m5 -60 c3 -5 -1 -10 -9 -10 -9 0 -16 5 -16 10 0 6 4 10 9 10 6 0 13 -4 16 -10z m65 -29 c0 -5 3 -17 7 -27 4 -11 2 -15 -7 -12 -15 5 -22 48 -8 48 4 0 8 -4 8 -9z m375 -191 c3 -5 2 -10 -4 -10 -5 0 -13 5 -16 10 -3 6 -2 10 4 10 5 0 13 -4 16 -10z m338 -117 c8 -8 -35 -32 -46 -25 -11 5 12 32 28 32 6 0 15 -3 18 -7z m613 -29 c19 -15 19 -15 -1 -6 -11 5 -27 12 -35 15 -13 5 -13 6 1 6 8 1 24 -6 35 -15z m-241 -14 c3 -5 1 -10 -4 -10 -6 0 -11 5 -11 10 0 6 2 10 4 10 3 0 8 -4 11 -10z"/>
<path d="M996 5812 c-3 -6 -1 -14 5 -17 14 -9 20 -2 10 14 -6 8 -11 9 -15 3z"/>
<path d="M1170 5696 c0 -47 5 -88 10 -91 6 -4 10 27 10 84 0 54 -4 91 -10 91 -6 0 -10 -35 -10 -84z"/>
<path d="M1493 5762 c-32 -3 -33 -5 -33 -47 0 -47 11 -61 38 -50 13 5 14 8 3 14 -7 5 -10 14 -6 20 5 9 10 9 21 0 7 -6 12 -15 9 -19 -3 -4 4 -10 15 -13 12 -3 23 1 28 10 5 8 21 16 35 17 33 4 36 -11 5 -17 -13 -2 6 -5 42 -6 l64 -1 -37 38 c-38 39 -51 65 -19 41 15 -13 16 -12 3 4 -14 17 -62 20 -168 9z m87 -32 c0 -5 -4 -10 -10 -10 -5 0 -10 5 -10 10 0 6 5 10 10 10 6 0 10 -4 10 -10z"/>
<path d="M1185 5488 c5 -29 9 -64 10 -78 4 -46 5 -50 16 -50 6 0 8 11 5 28 -3 15 -8 55 -11 90 -4 34 -11 62 -17 62 -6 0 -7 -19 -3 -52z"/>
<path d="M8430 5501 c-17 -5 -21 -9 -13 -14 12 -7 53 7 53 18 0 6 -7 5 -40 -4z"/>
<path d="M1221 5288 c-1 -21 4 -38 9 -38 11 0 11 14 0 50 -7 22 -8 21 -9 -12z"/>
<path d="M1240 5206 c0 -8 51 -170 57 -179 2 -4 8 -5 13 -2 10 6 -45 178 -59 183 -6 2 -11 1 -11 -2z"/>
<path d="M8336 5140 c-54 -10 -102 -22 -106 -27 -4 -4 -37 -161 -74 -348 -82 -414 -72 -379 -96 -355 -28 28 -86 50 -150 57 -93 9 -210 -33 -295 -108 -34 -30 -115 -143 -115 -160 0 -5 15 -9 33 -9 l32 0 -28 -15 c-15 -8 -34 -12 -42 -9 -10 4 -21 -19 -43 -88 -39 -121 -50 -186 -30 -173 8 6 6 2 -4 -7 -23 -21 -48 -177 -48 -297 0 -76 -3 -88 -27 -120 -122 -160 -226 -221 -269 -156 -23 35 -19 63 65 432 73 322 83 400 58 473 -26 74 -118 99 -237 64 -68 -20 -122 -54 -189 -118 l-53 -51 6 48 c9 56 16 55 -139 27 -60 -11 -113 -20 -117 -20 -9 0 -37 -130 -108 -494 -70 -358 -69 -356 -200 -488 -89 -89 -136 -114 -187 -102 -22 6 -29 26 -25 77 2 24 -15 22 -23 -3 -3 -11 -11 -20 -16 -20 -11 0 -12 24 -1 34 4 4 7 13 7 19 0 7 8 11 17 9 9 -1 19 5 22 15 11 41 177 875 174 878 -4 4 -256 -43 -267 -50 -5 -2 -12 -25 -15 -50 -9 -55 -20 -63 -41 -31 -43 65 -198 74 -317 19 -37 -17 -85 -51 -114 -80 -55 -55 -130 -171 -160 -246 -16 -39 -23 -47 -39 -42 -11 3 -39 8 -63 12 -33 4 -41 9 -38 22 17 59 57 308 52 326 -3 13 -15 27 -27 30 -11 4 -18 9 -15 12 3 3 17 -2 31 -11 14 -9 25 -14 25 -10 0 3 9 49 19 102 33 167 34 175 19 169 -7 -2 -12 -12 -12 -21 2 -18 -11 -22 -21 -6 -3 6 -17 10 -31 10 -13 0 -24 5 -24 10 0 6 13 9 28 8 29 -2 52 7 52 22 0 5 -17 21 -37 35 -23 15 -31 25 -21 25 9 0 22 2 30 3 7 2 10 2 6 0 -19 -11 -3 -23 69 -53 130 -54 172 -28 181 116 4 67 3 73 -24 102 -34 37 -104 70 -104 50 0 -8 -5 -5 -11 5 -8 14 -24 17 -107 16 -53 -1 -124 -4 -156 -8 l-59 -6 -13 -45 c-12 -38 -64 -274 -64 -287 0 -2 9 -1 20 2 28 9 25 -4 -4 -15 -19 -7 -26 -20 -36 -77 -7 -37 -33 -160 -57 -273 -25 -113 -48 -220 -50 -238 -6 -36 -31 -52 -80 -52 -14 0 -31 -7 -37 -14 -6 -8 -24 -18 -41 -21 -29 -6 -29 -6 -11 9 24 19 26 19 -99 1 -55 -8 -103 -15 -107 -15 -5 0 -8 12 -8 26 0 14 -4 23 -9 20 -5 -3 -11 3 -14 13 -3 13 2 21 15 24 11 3 17 10 13 16 -3 6 -1 11 4 11 6 0 11 7 11 15 0 9 -9 15 -21 15 -19 0 -19 1 -4 16 9 10 14 26 12 36 -4 15 -2 17 7 9 15 -12 27 35 56 214 14 82 15 112 7 117 -9 6 -9 8 1 8 7 0 12 13 12 30 0 17 -4 30 -10 30 -5 0 -10 5 -10 11 0 5 5 7 10 4 15 -9 12 56 -5 106 -40 114 -179 168 -350 135 -275 -54 -454 -269 -455 -546 0 -167 82 -310 178 -310 49 0 142 40 142 61 0 12 -5 16 -15 13 -8 -4 -15 -1 -15 5 0 6 5 11 11 11 8 0 9 11 4 33 -4 17 -7 43 -6 56 2 37 -7 42 -49 25 -28 -12 -44 -13 -57 -5 -17 10 -16 10 3 11 12 0 24 7 28 15 4 10 14 13 36 9 25 -5 30 -3 30 12 2 76 24 176 51 233 30 61 31 65 14 78 -21 15 -8 18 15 3 10 -6 29 -1 62 18 67 38 84 26 80 -57 -2 -39 1 -61 8 -61 6 0 8 -5 5 -10 -4 -6 -11 -7 -17 -4 -7 5 -9 0 -6 -14 3 -12 1 -23 -6 -26 -6 -2 -4 -5 5 -5 9 -1 22 6 29 14 7 8 17 15 23 15 6 0 0 -11 -13 -25 -13 -14 -31 -25 -41 -25 -13 0 -20 -14 -29 -57 -6 -32 -22 -105 -35 -163 -13 -58 -30 -139 -39 -181 -19 -86 -17 -85 -134 -114 -220 -55 -432 -169 -542 -292 -83 -93 -159 -276 -148 -354 3 -16 0 -29 -5 -29 -13 0 -2 -149 12 -163 5 -5 7 -15 5 -22 -7 -18 58 -142 99 -189 l33 -39 27 23 c30 26 82 51 90 43 13 -12 -8 -33 -33 -33 -15 0 -38 -8 -51 -19 l-23 -18 44 -28 c58 -37 109 -57 122 -49 5 4 13 2 17 -3 3 -6 25 -12 48 -15 32 -5 43 -2 48 10 5 14 7 14 18 -1 10 -13 21 -14 82 -3 52 8 71 16 73 29 4 19 17 23 27 7 4 -6 15 -5 30 2 13 6 22 15 19 19 -3 5 1 6 9 3 18 -6 99 54 112 84 5 12 16 22 23 22 10 0 12 7 8 25 -6 25 8 36 17 13 5 -13 29 34 32 62 1 8 3 21 4 28 0 6 8 12 17 12 8 0 12 5 9 11 -4 6 0 16 8 22 17 14 60 144 52 157 -4 6 -13 10 -22 10 -9 0 -25 7 -35 17 -17 15 -20 15 -46 -8 l-27 -24 23 26 c25 28 28 49 10 67 -19 19 1 14 37 -8 18 -11 36 -27 39 -35 8 -22 34 -18 41 6 5 15 1 25 -14 35 -12 9 -21 20 -21 26 0 6 9 3 19 -6 11 -10 22 -13 25 -8 3 6 23 103 43 216 l38 206 55 10 c30 6 98 20 150 32 86 20 92 22 68 32 -16 5 -28 13 -28 17 0 9 49 -1 56 -12 3 -5 25 -9 49 -9 42 0 68 -16 47 -29 -17 -11 -51 -169 -77 -365 l-7 -49 87 7 c57 4 84 3 80 -4 -3 -5 -37 -10 -74 -10 -102 0 -104 -3 -100 -144 3 -84 8 -119 18 -125 10 -6 10 -10 1 -13 -9 -3 -5 -23 13 -76 30 -86 78 -164 121 -197 73 -55 166 -80 195 -52 11 10 13 10 7 0 -5 -9 1 -13 18 -13 14 0 26 5 26 11 0 6 8 8 19 4 12 -3 40 4 69 19 47 24 62 47 62 96 0 14 -63 21 -73 8 -6 -10 -7 -9 -4 2 2 8 -12 32 -31 54 -75 84 -108 215 -97 386 4 52 9 103 11 113 4 11 0 17 -10 17 -9 0 -13 6 -10 14 3 8 1 24 -6 35 -6 13 -7 21 -1 21 5 0 13 -9 16 -21 4 -11 9 -18 11 -16 4 3 53 258 54 275 0 2 -4 1 -9 -2 -4 -3 -25 4 -47 14 -21 11 -49 20 -61 20 -24 0 -42 25 -28 38 4 4 10 1 12 -5 3 -7 14 -13 26 -13 12 0 30 -7 40 -15 16 -11 64 -12 75 -1 2 2 4 19 5 37 4 51 13 59 68 59 44 0 109 -21 109 -36 0 -2 -9 0 -21 6 -11 7 -23 10 -25 7 -15 -14 -25 -141 -22 -257 4 -108 9 -146 27 -192 26 -67 58 -111 77 -104 8 3 11 0 8 -8 -7 -18 51 -44 114 -52 48 -6 51 -5 47 15 -2 12 0 21 6 21 5 0 9 -9 9 -19 0 -19 2 -19 53 -4 28 8 65 22 81 30 32 16 122 103 153 147 l20 28 21 -35 c30 -52 73 -71 160 -70 101 0 192 46 289 143 38 38 73 70 76 70 4 0 2 -12 -3 -26 -6 -15 -14 -44 -19 -66 -9 -38 -8 -39 13 -34 13 3 72 15 132 27 60 11 110 22 111 23 2 1 30 135 62 297 110 543 131 610 213 688 46 45 92 70 144 78 32 5 34 4 34 -23 0 -29 -27 -176 -94 -522 -52 -265 -47 -345 23 -404 39 -34 102 -44 183 -29 102 18 176 61 262 152 42 44 76 85 76 90 0 21 27 6 52 -30 19 -26 34 -37 50 -37 13 1 22 -4 21 -11 -5 -21 72 -35 132 -24 75 14 113 36 121 69 9 43 14 50 11 15 -2 -18 0 -33 5 -33 5 0 46 36 92 80 46 44 86 80 90 80 3 0 6 -13 6 -30 0 -24 8 -34 43 -54 23 -13 58 -27 78 -31 50 -9 144 10 209 43 116 58 264 240 375 462 54 107 130 290 123 294 -2 1 -26 9 -55 18 l-51 16 -42 -107 c-72 -182 -165 -332 -283 -458 -52 -55 -102 -79 -143 -69 -53 14 -50 56 31 447 31 148 53 273 50 278 -3 5 -1 11 3 13 5 1 46 192 91 423 45 231 84 428 87 438 7 22 -17 21 -150 -3z m-1 -320 c3 -5 2 -10 -4 -10 -5 0 -13 5 -16 10 -3 6 -2 10 4 10 5 0 13 -4 16 -10z m-20 -91 c31 -6 25 -7 -25 -3 -36 3 -69 10 -75 16 -7 7 0 8 25 3 19 -4 53 -11 75 -16z m-75 -113 c0 -2 -7 -7 -16 -10 -8 -3 -12 -2 -9 4 6 10 25 14 25 6z m-3256 -91 c-4 -8 -11 -12 -16 -9 -6 4 -5 10 3 15 19 12 19 11 13 -6z m376 -10 c6 -8 10 -20 7 -27 -3 -9 -7 -6 -13 7 -4 11 -12 23 -18 27 -8 5 -8 8 0 8 6 0 17 -7 24 -15z m30 -49 c0 -3 -4 -8 -10 -11 -5 -3 -10 -1 -10 4 0 6 5 11 10 11 6 0 10 -2 10 -4z m-85 -75 c-3 -6 -11 -11 -16 -11 -5 0 -4 6 3 14 14 16 24 13 13 -3z m2630 -29 c-3 -3 -11 0 -18 7 -9 10 -8 11 6 5 10 -3 15 -9 12 -12z m-190 -12 c8 -13 -5 -13 -25 0 -13 8 -13 10 2 10 9 0 20 -4 23 -10z m169 -6 c5 -14 4 -15 -9 -4 -17 14 -19 20 -6 20 5 0 12 -7 15 -16z m-2624 -20 c0 -2 -16 -4 -35 -4 -19 0 -35 4 -35 8 0 4 16 6 35 4 19 -2 35 -6 35 -8z m2751 -46 c10 -15 11 -9 -36 -273 -43 -240 -80 -392 -103 -420 -81 -99 -145 -145 -201 -145 -37 0 -71 40 -71 84 0 33 -12 58 -26 57 -16 -2 -16 64 0 94 8 16 13 32 11 36 -8 11 -45 18 -51 8 -3 -5 1 -9 8 -9 7 0 14 -11 14 -25 2 -25 -19 -35 -31 -15 -4 6 -11 7 -17 4 -6 -4 -6 1 1 14 9 17 8 22 -9 27 -11 3 -20 11 -20 16 0 9 33 13 87 10 36 -3 34 -7 58 118 47 238 128 385 239 439 35 17 44 18 89 6 28 -7 54 -19 58 -26z m-293 -19 c-3 -8 -7 -3 -11 10 -4 17 -3 21 5 13 5 -5 8 -16 6 -23z m-3353 11 c-3 -5 -10 -10 -16 -10 -5 0 -9 5 -9 10 0 6 7 10 16 10 8 0 12 -4 9 -10z m3229 -6 c3 -8 2 -12 -4 -9 -6 3 -10 10 -10 16 0 14 7 11 14 -7z m-3217 -29 c-4 -8 -11 -15 -17 -15 -7 0 -7 6 0 21 13 23 26 19 17 -6z m691 -5 c18 -11 39 -20 46 -20 8 0 16 -6 19 -14 5 -12 2 -12 -20 -1 -15 8 -29 12 -33 10 -3 -2 -19 7 -36 20 -35 30 -21 32 24 5z m2033 3 c13 -16 12 -17 -3 -4 -10 7 -18 15 -18 17 0 8 8 3 21 -13z m-2951 -3 c0 -5 -5 -10 -11 -10 -5 0 -7 5 -4 10 3 6 8 10 11 10 2 0 4 -4 4 -10z m3000 6 c0 -3 -4 -8 -10 -11 -5 -3 -10 -1 -10 4 0 6 5 11 10 11 6 0 10 -2 10 -4z m401 -17 c-23 -9 -41 -5 -41 10 0 4 14 5 32 3 31 -5 31 -5 9 -13z m620 -44 c-17 -20 -31 -31 -31 -26 0 5 -3 18 -6 28 -5 15 -4 16 6 3 9 -13 14 -11 32 12 12 15 24 26 26 23 3 -2 -9 -20 -27 -40z m-3931 25 c0 -5 -2 -10 -4 -10 -3 0 -8 5 -11 10 -3 6 -1 10 4 10 6 0 11 -4 11 -10z m96 -17 c-10 -10 -19 5 -10 18 6 11 8 11 12 0 2 -7 1 -15 -2 -18z m-423 -10 c-7 -2 -19 -2 -25 0 -7 3 -2 5 12 5 14 0 19 -2 13 -5z m47 -13 c8 -5 11 -10 5 -10 -5 0 -17 5 -25 10 -8 5 -10 10 -5 10 6 0 17 -5 25 -10z m4255 -9 c-3 -6 -11 -11 -17 -11 -6 0 -6 6 2 15 14 17 26 13 15 -4z m-3944 -18 c12 -15 12 -16 -4 -10 -10 4 -28 7 -38 7 -11 0 -17 5 -14 10 10 16 41 12 56 -7z m2781 -20 c-6 -10 -25 -31 -43 -48 -31 -29 -31 -29 6 22 37 50 58 65 37 26z m-2062 -8 c-13 -14 -28 -25 -34 -25 -6 0 3 11 19 25 39 31 45 32 15 0z m-678 -10 c0 -5 -5 -11 -11 -13 -6 -2 -11 4 -11 13 0 9 5 15 11 13 6 -2 11 -8 11 -13z m558 -15 c-8 -5 -19 -10 -25 -10 -5 0 -3 5 5 10 8 5 20 10 25 10 6 0 3 -5 -5 -10z m-1130 -13 c-8 -7 -31 -30 -51 -53 -35 -40 -36 -40 -49 -20 -10 17 -10 19 0 9 11 -10 22 -3 55 32 23 25 46 45 51 45 5 0 2 -6 -6 -13z m130 -36 c-6 -12 -16 -19 -21 -15 -6 4 -4 13 7 25 21 24 29 18 14 -10z m287 -17 c-12 -12 -25 7 -19 28 l5 22 10 -22 c6 -12 7 -25 4 -28z m794 29 c13 -17 13 -17 -6 -3 -11 8 -22 16 -24 17 -2 2 0 3 6 3 6 0 17 -8 24 -17z m-686 -13 c-3 -5 -14 -10 -23 -10 -15 0 -15 2 -2 10 20 13 33 13 25 0z m122 -6 c-3 -3 -12 -4 -19 -1 -8 3 -5 6 6 6 11 1 17 -2 13 -5z m-31 -19 c10 -8 15 -14 9 -14 -5 0 -19 6 -29 14 -11 8 -15 15 -10 15 6 0 19 -7 30 -15z m-125 -22 c12 -16 12 -16 -1 -6 -8 6 -28 13 -45 16 l-30 4 31 2 c20 0 37 -6 45 -16z m54 -4 c-10 -15 -25 -10 -19 6 4 8 10 12 15 9 5 -3 7 -10 4 -15z m-650 -19 c-3 -5 -10 -10 -16 -10 -5 0 -9 5 -9 10 0 6 7 10 16 10 8 0 12 -4 9 -10z m1836 -33 c-8 -8 -11 -7 -11 4 0 20 13 34 18 19 3 -7 -1 -17 -7 -23z m529 3 c0 -5 -2 -10 -4 -10 -3 0 -8 5 -11 10 -3 6 -1 10 4 10 6 0 11 -4 11 -10z m2621 -7 c13 -16 12 -17 -3 -4 -10 7 -18 15 -18 17 0 8 8 3 21 -13z m-4452 -65 c1 -5 -3 -8 -9 -8 -5 0 -10 12 -9 28 0 24 1 25 9 7 5 -11 9 -23 9 -27z m1571 17 c17 -9 33 -27 36 -42 12 -45 -117 -626 -155 -700 -44 -87 -145 -172 -204 -173 -10 0 -28 10 -41 23 -13 13 -28 21 -34 19 -5 -1 -21 18 -33 43 -22 44 -25 47 -56 42 -18 -3 -33 -2 -33 3 0 5 17 12 38 15 20 3 45 8 55 10 19 4 24 -11 5 -17 -9 -3 -9 -12 1 -36 23 -55 33 -49 26 14 -4 33 -11 61 -15 64 -3 3 -9 13 -13 23 -3 9 -16 17 -27 17 -11 0 -20 5 -20 10 0 17 28 11 49 -11 l20 -22 6 24 c3 13 7 55 8 93 l2 70 -49 18 c-48 18 -50 18 -92 -2 -47 -21 -89 -27 -79 -10 4 6 15 8 25 5 12 -4 24 2 37 18 18 23 21 23 80 14 35 -6 65 -8 68 -5 3 3 -5 23 -20 43 -25 38 -34 85 -15 85 6 0 10 -14 10 -31 0 -22 4 -30 13 -26 18 7 45 -11 32 -20 -6 -5 -8 -24 -5 -43 l6 -35 8 45 c14 81 76 254 116 321 42 71 103 133 154 155 41 17 61 17 96 -1z m1370 5 c0 -5 -10 -10 -22 -9 -22 0 -22 1 -3 9 11 5 21 9 23 9 1 1 2 -3 2 -9z m345 0 c3 -5 1 -10 -4 -10 -6 0 -11 5 -11 10 0 6 2 10 4 10 3 0 8 -4 11 -10z m-1005 -25 c0 -8 -4 -15 -9 -15 -13 0 -22 16 -14 24 11 11 23 6 23 -9z m160 11 c0 -2 -7 -7 -16 -10 -8 -3 -12 -2 -9 4 6 10 25 14 25 6z m-1090 -28 c12 -8 11 -8 -3 -4 -10 3 -27 6 -38 6 -10 0 -19 5 -19 11 0 11 33 4 60 -13z m-1415 2 c3 -6 -1 -7 -9 -4 -18 7 -21 14 -7 14 6 0 13 -4 16 -10z m1835 -32 c0 -13 -24 -9 -49 8 -17 12 -20 19 -10 24 12 8 58 -17 59 -32z m-601 16 c-7 -8 -25 -22 -41 -30 -30 -16 -37 -34 -13 -34 10 0 15 -10 15 -30 0 -16 8 -38 18 -48 12 -12 15 -26 11 -47 -6 -29 -6 -29 -20 18 -7 26 -19 47 -26 47 -15 0 -9 -37 13 -81 7 -15 11 -29 7 -32 -3 -4 6 -11 19 -16 14 -5 35 -23 47 -39 23 -33 29 -58 6 -28 -8 10 -31 29 -51 41 -34 21 -39 30 -55 96 -11 48 -14 78 -8 86 7 7 6 14 -1 18 -20 12 -10 34 28 56 20 13 39 27 40 31 2 4 8 8 14 8 6 0 5 -6 -3 -16z m678 -17 c4 -7 0 -8 -11 -4 -10 4 -27 7 -39 7 -16 0 -18 3 -8 9 15 10 48 3 58 -12z m-2240 7 c-3 -3 -12 -4 -19 -1 -8 3 -5 6 6 6 11 1 17 -2 13 -5z m2656 -1 c-7 -2 -19 -2 -25 0 -7 3 -2 5 12 5 14 0 19 -2 13 -5z m1101 -2 c4 -5 -3 -7 -14 -4 -23 6 -26 13 -6 13 8 0 17 -4 20 -9z m-3374 -20 c6 -11 6 -22 1 -25 -5 -3 -11 5 -13 19 -6 30 -2 32 12 6z m-480 -7 c0 -2 -9 -4 -20 -4 -11 0 -20 4 -20 9 0 5 9 7 20 4 11 -3 20 -7 20 -9z m2280 7 c0 -6 -4 -13 -10 -16 -5 -3 -10 1 -10 9 0 9 5 16 10 16 6 0 10 -4 10 -9z m-2203 -17 c-3 -3 -12 -4 -19 -1 -8 3 -5 6 6 6 11 1 17 -2 13 -5z m4243 -9 c11 -13 10 -14 -5 -9 -13 5 -16 4 -11 -4 4 -7 2 -12 -3 -12 -13 0 -13 3 -5 24 8 20 9 20 24 1z m-3930 -5 c-20 -13 -33 -13 -25 0 3 6 14 10 23 10 15 0 15 -2 2 -10z m175 0 c-9 -14 -80 -50 -99 -50 -10 0 -13 6 -9 17 4 10 8 12 10 6 5 -13 47 1 73 24 17 15 34 17 25 3z m3213 0 c8 0 12 -6 9 -12 -2 -7 -1 -20 4 -29 6 -12 2 -19 -16 -27 -26 -12 -33 -4 -14 15 8 8 5 17 -11 33 -16 16 -25 19 -33 11 -6 -6 -18 -11 -26 -11 -10 0 -7 6 9 14 14 8 34 13 45 10 11 -2 26 -4 33 -4z m-2602 -18 c-6 -10 -115 -36 -122 -29 -3 2 21 11 53 19 74 19 75 20 69 10z m1056 -24 c-10 -18 -36 -61 -56 -95 -21 -35 -40 -63 -43 -63 -2 0 4 15 15 33 10 17 36 60 56 95 21 34 40 62 43 62 2 0 -4 -15 -15 -32z m-2138 -4 c64 -35 70 -51 7 -19 -28 15 -54 31 -57 36 -8 14 0 11 50 -17z m516 -15 c0 -10 -12 -11 -34 -3 -25 10 -19 22 9 16 14 -2 25 -8 25 -13z m475 -18 c-3 -6 -11 -11 -17 -11 -6 0 -6 6 2 15 14 17 26 13 15 -4z m160 10 c-6 -5 -26 -12 -45 -15 l-35 -6 35 14 c42 17 58 20 45 7z m3615 -11 c0 -5 -2 -10 -4 -10 -3 0 -8 5 -11 10 -3 6 -1 10 4 10 6 0 11 -4 11 -10z m-2140 -22 c0 -13 -23 -5 -28 10 -2 7 2 10 12 6 9 -3 16 -11 16 -16z m1625 12 c-3 -5 -12 -10 -18 -10 -7 0 -6 4 3 10 19 12 23 12 15 0z m-1047 -19 c3 -8 -1 -12 -9 -9 -7 2 -15 10 -17 17 -3 8 1 12 9 9 7 -2 15 -10 17 -17z m490 3 c23 -3 42 -10 42 -15 0 -15 -59 -10 -91 7 -17 8 -37 13 -45 10 -7 -3 -16 0 -20 6 -5 7 6 8 32 4 22 -3 58 -8 82 -12z m-2628 2 c0 -2 -9 -6 -20 -9 -11 -3 -18 -1 -14 4 5 9 34 13 34 5z m2557 -32 c-3 -3 -12 -4 -19 -1 -8 3 -5 6 6 6 11 1 17 -2 13 -5z m-2167 -14 c0 -5 -7 -10 -15 -10 -8 0 -15 5 -15 10 0 6 7 10 15 10 8 0 15 -4 15 -10z m1124 4 c22 -9 10 -23 -14 -17 -11 3 -17 9 -14 14 6 11 8 11 28 3z m2031 -4 c-3 -5 -14 -10 -23 -9 -14 0 -13 2 3 9 27 11 27 11 20 0z m-4625 -25 c16 -9 19 -14 9 -15 -8 0 -24 7 -35 15 -24 18 -7 19 26 0z m330 -15 c-8 -5 -19 -9 -25 -9 -5 0 -4 3 3 6 6 2 12 12 12 21 0 13 3 13 12 4 10 -10 10 -15 -2 -22z m847 -12 c-3 -8 -6 -5 -6 6 -1 11 2 17 5 13 3 -3 4 -12 1 -19z m1444 5 c13 -16 12 -17 -3 -4 -10 7 -18 15 -18 17 0 8 8 3 21 -13z m1611 -5 c-3 -13 -8 -25 -12 -28 -4 -3 -12 -18 -17 -35 l-11 -30 2 37 c0 20 5 36 11 35 5 -1 11 8 13 21 2 12 7 22 12 22 4 0 6 -10 2 -22z m-3497 -8 c-3 -5 -12 -10 -18 -10 -7 0 -6 4 3 10 19 12 23 12 15 0z m3071 -14 c21 -21 17 -26 -11 -13 -14 7 -25 15 -25 20 0 12 20 8 36 -7z m-2951 -6 c3 -5 1 -10 -4 -10 -6 0 -11 5 -11 10 0 6 2 10 4 10 3 0 8 -4 11 -10z m-335 -20 c0 -5 -4 -10 -9 -10 -6 0 -13 5 -16 10 -3 6 1 10 9 10 9 0 16 -4 16 -10z m3766 -18 c-17 -16 -18 -16 -5 5 7 12 15 20 18 17 3 -2 -3 -12 -13 -22z m-4041 8 c3 -5 1 -10 -4 -10 -6 0 -11 5 -11 10 0 6 2 10 4 10 3 0 8 -4 11 -10z m3575 -20 c0 -5 -2 -10 -4 -10 -3 0 -8 5 -11 10 -3 6 -1 10 4 10 6 0 11 -4 11 -10z m-3255 -10 c-3 -5 -11 -10 -16 -10 -6 0 -7 5 -4 10 3 6 11 10 16 10 6 0 7 -4 4 -10z m3078 3 c-7 -2 -19 -2 -25 0 -7 3 -2 5 12 5 14 0 19 -2 13 -5z m-2383 -13 c0 -5 -5 -10 -11 -10 -5 0 -7 5 -4 10 3 6 8 10 11 10 2 0 4 -4 4 -10z m2970 -35 c-7 -9 -15 -13 -19 -10 -3 3 1 10 9 15 21 14 24 12 10 -5z m-3585 -5 c3 -5 -1 -10 -9 -10 -9 0 -16 5 -16 10 0 6 4 10 9 10 6 0 13 -4 16 -10z m3850 0 c-3 -5 -12 -10 -18 -10 -7 0 -6 4 3 10 19 12 23 12 15 0z m-4091 -36 l-29 -24 30 -25 c17 -13 25 -24 19 -25 -6 0 -21 11 -34 25 -19 20 -21 27 -10 40 9 11 10 19 1 28 -8 11 -4 13 21 9 l32 -5 -30 -23z m-112 -16 c-18 -18 -22 -19 -22 -6 0 8 -10 19 -22 23 -21 7 -20 8 12 14 47 9 60 -4 32 -31z m388 32 c0 -5 -2 -10 -4 -10 -3 0 -8 5 -11 10 -3 6 -1 10 4 10 6 0 11 -4 11 -10z m3050 -10 c0 -5 -4 -10 -10 -10 -5 0 -10 5 -10 10 0 6 5 10 10 10 6 0 10 -4 10 -10z m196 -14 c0 -14 -6 -22 -13 -19 -9 4 -9 9 0 24 15 24 15 24 13 -5z m-3826 4 c24 -15 7 -19 -20 -5 -15 8 -19 14 -10 14 8 1 22 -3 30 -9z m3980 6 c0 -2 -7 -6 -15 -10 -8 -3 -15 -1 -15 4 0 6 7 10 15 10 8 0 15 -2 15 -4z m-3557 -66 c-8 -8 -33 32 -27 42 4 6 12 -1 18 -14 7 -12 11 -25 9 -28z m182 40 c3 -5 2 -10 -4 -10 -5 0 -13 5 -16 10 -3 6 -2 10 4 10 5 0 13 -4 16 -10z m1266 -21 c-5 -13 -10 -19 -10 -12 -1 15 10 45 15 40 3 -2 0 -15 -5 -28z m-951 11 c0 -5 -5 -10 -11 -10 -5 0 -7 5 -4 10 3 6 8 10 11 10 2 0 4 -4 4 -10z m544 -20 c41 -15 31 -17 -39 -6 -35 5 -62 13 -59 17 5 9 63 3 98 -11z m-934 0 c-8 -5 -31 -9 -50 -9 l-35 2 35 7 c19 4 42 8 50 9 13 1 13 0 0 -9z m67 4 c-3 -3 -12 -4 -19 -1 -8 3 -5 6 6 6 11 1 17 -2 13 -5z m1370 -10 c-3 -3 -12 -4 -19 -1 -8 3 -5 6 6 6 11 1 17 -2 13 -5z m-93 -23 c3 -4 -4 -17 -16 -27 -20 -18 -21 -18 -15 -1 4 10 7 23 7 28 0 11 17 12 24 0z m1819 2 c-7 -2 -21 -2 -30 0 -10 3 -4 5 12 5 17 0 24 -2 18 -5z m-2720 -18 c-4 -15 -36 -12 -41 3 -3 9 3 13 19 10 13 -1 23 -7 22 -13z m1007 1 c0 -3 -4 -8 -10 -11 -5 -3 -10 -1 -10 4 0 6 5 11 10 11 6 0 10 -2 10 -4z m-1632 -18 c-3 -7 -15 -15 -28 -16 -21 -3 -22 -2 -11 12 16 19 44 21 39 4z m437 -8 c3 -5 1 -10 -4 -10 -6 0 -11 5 -11 10 0 6 2 10 4 10 3 0 8 -4 11 -10z m1198 -38 c32 -10 32 -10 -8 -6 -37 5 -42 2 -67 -35 -16 -21 -28 -43 -28 -49 0 -5 12 -8 28 -6 20 3 19 1 -8 -7 -55 -17 -62 -32 -13 -27 23 2 39 0 37 -4 -9 -13 -73 -9 -81 6 -4 7 -15 16 -23 20 -8 3 -5 4 8 2 16 -3 27 2 36 17 62 104 81 130 84 115 2 -8 17 -20 35 -26z m-963 18 c0 -5 -4 -10 -9 -10 -6 0 -13 5 -16 10 -3 6 1 10 9 10 9 0 16 -4 16 -10z m2040 -13 c16 4 21 3 16 -5 -11 -18 -52 -14 -67 5 -13 15 -12 15 7 5 11 -6 31 -8 44 -5z m-3135 -27 c3 -5 2 -10 -4 -10 -5 0 -13 5 -16 10 -3 6 -2 10 4 10 5 0 13 -4 16 -10z m-52 -65 l17 -35 57 29 c32 16 68 32 81 36 22 6 23 5 17 -32 -4 -21 -11 -54 -16 -73 -9 -37 2 -54 33 -46 9 2 25 -2 35 -9 15 -11 11 -12 -30 -8 -34 4 -48 2 -51 -8 -2 -8 -19 -79 -39 -159 -41 -172 -41 -174 59 -171 38 1 64 -2 64 -9 0 -6 -27 -10 -66 -10 -59 0 -65 -2 -59 -17 4 -13 0 -11 -16 5 -17 19 -23 21 -30 10 -14 -22 -10 -31 8 -17 15 13 15 12 4 -8 -6 -13 -16 -23 -21 -23 -5 0 -14 -17 -20 -39 -5 -21 -17 -44 -25 -51 -8 -7 -50 -15 -92 -19 -73 -6 -80 -5 -107 19 -36 32 -56 71 -56 110 0 17 -4 29 -9 26 -21 -13 -67 7 -84 36 -17 29 -19 30 -77 26 -69 -5 -81 8 -16 17 47 7 90 -8 125 -46 30 -32 48 -18 61 48 26 124 86 229 185 321 l65 60 -15 36 c-20 46 -4 47 18 1z m447 -5 c0 -5 -5 -10 -11 -10 -5 0 -7 5 -4 10 3 6 8 10 11 10 2 0 4 -4 4 -10z m470 -4 c0 -3 -4 -8 -10 -11 -5 -3 -10 -1 -10 4 0 6 5 11 10 11 6 0 10 -2 10 -4z m-710 -51 c0 -8 -4 -15 -10 -15 -5 0 -10 7 -10 15 0 8 5 15 10 15 6 0 10 -7 10 -15z m715 -14 c-3 -6 -11 -11 -17 -11 -6 0 -6 6 2 15 14 17 26 13 15 -4z m575 -11 c0 -5 -5 -10 -11 -10 -5 0 -7 5 -4 10 3 6 8 10 11 10 2 0 4 -4 4 -10z m-1146 -35 c-14 -19 -31 -35 -36 -35 -5 0 -7 4 -4 9 4 5 1 11 -6 13 -10 4 47 45 65 47 4 1 -4 -15 -19 -34z m1845 -19 c9 -10 8 -15 -4 -20 -10 -4 -15 1 -15 14 0 24 4 25 19 6z m-1924 -36 c3 -5 2 -10 -4 -10 -5 0 -13 5 -16 10 -3 6 -2 10 4 10 5 0 13 -4 16 -10z m1885 0 c0 -5 -4 -10 -9 -10 -6 0 -13 5 -16 10 -3 6 1 10 9 10 9 0 16 -4 16 -10z m-515 -20 c28 -10 42 -19 32 -20 -20 0 -87 26 -87 34 0 8 -1 8 55 -14z m378 5 c-3 -9 -8 -14 -10 -11 -3 3 -2 9 2 15 9 16 15 13 8 -4z m-2460 -12 c9 -16 -9 -38 -30 -39 -13 0 -23 3 -23 8 0 4 9 8 20 8 25 0 26 17 3 23 -14 4 -13 5 4 6 12 0 24 -2 26 -6z m2632 -3 c3 -5 1 -10 -4 -10 -6 0 -11 5 -11 10 0 6 2 10 4 10 3 0 8 -4 11 -10z m-2559 -16 c18 -14 18 -14 -6 -3 -31 14 -36 19 -24 19 6 0 19 -7 30 -16z m658 -29 c4 -11 -2 -15 -22 -14 -17 1 -20 3 -9 6 9 2 17 9 17 14 0 14 7 11 14 -6z m-549 -13 c-3 -3 -11 0 -18 7 -9 10 -8 11 6 5 10 -3 15 -9 12 -12z m1805 14 c0 -2 -8 -10 -17 -17 -16 -13 -17 -12 -4 4 13 16 21 21 21 13z m-90 -26 c0 -5 -5 -10 -11 -10 -5 0 -7 5 -4 10 3 6 8 10 11 10 2 0 4 -4 4 -10z m184 -14 c-6 -16 -24 -23 -24 -8 0 10 22 33 27 28 2 -2 1 -11 -3 -20z m-757 -8 c-3 -8 -6 -5 -6 6 -1 11 2 17 5 13 3 -3 4 -12 1 -19z m-1315 -5 c15 4 18 3 10 -5 -12 -12 -78 -3 -87 12 -3 5 8 4 25 -1 17 -6 40 -9 52 -6z m2021 -46 c-4 -6 -10 -2 -14 9 -12 31 -9 40 6 20 8 -10 11 -24 8 -29z m-573 23 c0 -5 -10 -10 -22 -10 -19 0 -20 2 -8 10 19 13 30 13 30 0z m-1520 -70 c0 -5 -2 -10 -4 -10 -3 0 -8 5 -11 10 -3 6 -1 10 4 10 6 0 11 -4 11 -10z m755 -20 c-17 -19 -17 -20 15 -50 18 -16 28 -30 22 -30 -5 0 -24 16 -42 37 l-32 36 23 13 c33 18 35 17 14 -6z m-124 -22 c10 -6 6 -7 -11 -2 -32 8 -34 10 -25 24 6 9 9 9 15 0 4 -7 14 -17 21 -22z m800 -4 c23 -25 27 -33 13 -26 -18 9 -61 62 -51 62 2 0 19 -16 38 -36z m159 6 c0 -5 -4 -10 -10 -10 -5 0 -10 5 -10 10 0 6 5 10 10 10 6 0 10 -4 10 -10z m-1580 -30 c0 -5 -4 -10 -10 -10 -5 0 -10 5 -10 10 0 6 5 10 10 10 6 0 10 -4 10 -10z m865 0 c-3 -5 -12 -10 -18 -10 -7 0 -6 4 3 10 19 12 23 12 15 0z m665 -25 c7 -9 8 -15 2 -15 -5 0 -12 7 -16 15 -3 8 -4 15 -2 15 2 0 9 -7 16 -15z m70 5 c-8 -5 -15 -17 -15 -27 0 -11 -11 -19 -32 -24 -18 -3 -54 -24 -80 -45 -48 -40 -88 -64 -105 -64 -18 0 3 20 35 34 18 7 54 32 82 55 27 22 57 41 65 41 8 0 21 9 28 20 7 11 18 20 25 20 8 0 7 -4 -3 -10z m-962 -49 c10 -29 10 -30 -13 -19 -20 9 -22 14 -14 29 13 25 15 24 27 -10z m-54 -25 c-6 -16 -24 -23 -24 -8 0 10 22 33 27 28 2 -2 1 -11 -3 -20z m-376 -25 c-5 -2 -15 2 -21 8 -9 9 -8 14 3 21 11 7 17 4 21 -8 4 -9 2 -19 -3 -21z m467 -33 c6 -22 4 -28 -10 -28 -12 0 -15 5 -10 20 4 11 2 20 -4 20 -6 0 -8 7 -4 16 7 19 20 7 28 -28z m56 25 c13 -16 12 -17 -3 -4 -17 13 -22 21 -14 21 2 0 10 -8 17 -17z m-572 -36 c1 -5 -6 -1 -15 7 -8 9 -12 21 -8 28 5 8 10 6 15 -8 4 -10 8 -23 8 -27z m-147 4 l-32 -28 22 -11 c16 -7 18 -11 7 -11 -9 -1 -22 5 -28 13 -10 11 -6 20 16 40 15 14 32 26 38 26 5 -1 -5 -13 -23 -29z m538 4 c0 -8 -4 -15 -10 -15 -5 0 -10 7 -10 15 0 8 5 15 10 15 6 0 10 -7 10 -15z m-305 -23 c0 -18 -20 -15 -23 4 -3 10 1 15 10 12 7 -3 13 -10 13 -16z m287 -24 c-7 -7 -12 -8 -12 -2 0 14 12 26 19 19 2 -3 -1 -11 -7 -17z m183 -6 c-3 -3 -11 0 -18 7 -9 10 -8 11 6 5 10 -3 15 -9 12 -12z m-615 -2 c0 -5 -7 -10 -16 -10 -8 0 -12 5 -9 10 3 6 10 10 16 10 5 0 9 -4 9 -10z m565 0 c3 -5 -3 -10 -14 -10 -12 0 -21 5 -21 10 0 6 6 10 14 10 8 0 18 -4 21 -10z m-465 -10 c0 -6 -12 -16 -27 -22 -16 -7 -42 -23 -59 -35 -34 -25 -44 -28 -44 -13 0 5 19 22 43 37 23 16 44 31 45 36 5 11 42 8 42 -3z m1460 -21 c10 -6 5 -7 -15 -3 -16 4 -34 11 -40 16 -11 12 31 1 55 -13z m-1145 1 c-8 -13 26 -13 59 -1 18 7 28 6 36 -5 7 -7 17 -14 22 -14 5 0 22 -10 38 -22 31 -23 26 -38 -14 -38 -15 0 -16 3 -6 15 16 19 8 28 -25 28 -14 0 -25 3 -25 8 0 14 -32 11 -64 -6 -15 -8 -29 -15 -30 -15 -2 0 1 52 3 58 1 1 4 2 7 2 3 0 2 -4 -1 -10z m190 -1 c11 -17 -1 -21 -15 -4 -8 9 -8 15 -2 15 6 0 14 -5 17 -11z m1012 5 c-3 -3 -12 -4 -19 -1 -8 3 -5 6 6 6 11 1 17 -2 13 -5z m-1037 -24 c0 -5 -2 -10 -4 -10 -3 0 -8 5 -11 10 -3 6 -1 10 4 10 6 0 11 -4 11 -10z m1030 0 c0 -5 -7 -7 -15 -4 -8 4 -15 8 -15 10 0 2 7 4 15 4 8 0 15 -4 15 -10z m-1482 -52 c9 -32 7 -47 -3 -36 -11 11 -23 68 -15 68 5 0 13 -15 18 -32z m340 2 c-14 -22 -28 -26 -28 -9 0 5 -5 7 -12 3 -7 -5 -8 -3 -4 5 5 7 14 10 22 7 8 -3 14 -1 14 4 0 6 5 10 10 10 6 0 5 -8 -2 -20z m-68 0 c0 -5 -5 -10 -11 -10 -5 0 -7 5 -4 10 3 6 8 10 11 10 2 0 4 -4 4 -10z m1230 -6 c-8 -8 -23 -20 -34 -25 -15 -7 -13 -3 7 15 31 29 47 35 27 10z m-1370 -13 c0 -5 -7 -11 -15 -15 -9 -3 -15 0 -15 9 0 8 7 15 15 15 8 0 15 -4 15 -9z m38 -31 c-18 -21 -35 -34 -37 -29 -4 12 47 69 61 69 5 0 -6 -18 -24 -40z m212 19 c0 -6 -4 -7 -10 -4 -5 3 -10 11 -10 16 0 6 5 7 10 4 6 -3 10 -11 10 -16z m-319 -55 c2 -7 1 -12 -3 -13 -11 -1 -28 61 -20 74 3 5 9 -4 13 -20 3 -17 8 -35 10 -41z m209 19 c0 -13 -4 -23 -9 -23 -12 0 -18 29 -13 53 6 24 22 2 22 -30z"/>
<path d="M7612 3620 c0 -14 2 -19 5 -12 2 6 2 18 0 25 -3 6 -5 1 -5 -13z"/>
<path d="M1792 4996 c-117 -74 -117 -75 -96 -119 19 -40 25 -43 57 -26 30 16 187 120 187 124 0 14 -44 75 -53 74 -7 0 -49 -24 -95 -53z"/>
<path d="M5995 5005 c43 -13 51 -12 40 4 -3 6 -23 11 -43 10 l-37 -1 40 -13z"/>
<path d="M1340 4925 c0 -15 72 -145 80 -145 14 0 14 -2 -25 78 -19 40 -39 72 -45 72 -5 0 -10 -2 -10 -5z"/>
<path d="M1450 4714 c0 -19 74 -124 87 -124 16 0 18 -4 -45 93 -22 33 -42 48 -42 31z"/>
<path d="M4622 4498 l-72 -87 12 -45 12 -46 53 52 c29 29 53 59 53 67 0 7 7 19 16 25 13 10 14 22 7 67 l-8 54 -73 -87z"/>
<path d="M1570 4534 c0 -9 67 -99 84 -113 9 -7 17 -8 20 -2 7 10 -80 121 -95 121 -5 0 -9 -3 -9 -6z"/>
<path d="M2332 4408 c-50 -86 -61 -112 -50 -119 9 -6 10 -9 1 -9 -22 0 -14 -16 15 -30 15 -8 31 -14 35 -15 4 0 28 34 52 75 l44 75 -27 22 c-31 26 -23 31 13 7 23 -15 24 -15 44 25 12 22 21 42 21 45 0 3 -76 37 -83 36 -1 0 -31 -51 -65 -112z m28 -88 c0 -5 -5 -10 -11 -10 -5 0 -7 5 -4 10 3 6 8 10 11 10 2 0 4 -4 4 -10z m-26 -35 c-4 -8 -11 -15 -16 -15 -6 0 -5 6 2 15 7 8 14 15 16 15 2 0 1 -7 -2 -15z"/>
<path d="M1721 4363 c-9 -4 8 -25 50 -64 41 -39 66 -56 73 -49 5 5 8 11 5 12 -2 2 -29 26 -59 54 -31 29 -61 49 -69 47z"/>
<path d="M4669 4194 c-13 -14 -54 -49 -91 -76 -65 -49 -68 -52 -68 -93 0 -23 -3 -57 -7 -76 l-6 -33 48 35 c100 71 120 97 139 183 9 43 15 80 13 82 -2 2 -14 -8 -28 -22z m-21 -119 c-3 -3 -9 2 -12 12 -6 14 -5 15 5 6 7 -7 10 -15 7 -18z m-88 -25 c0 -5 -2 -10 -4 -10 -3 0 -8 5 -11 10 -3 6 -1 10 4 10 6 0 11 -4 11 -10z"/>
<path d="M1896 4202 c-8 -13 117 -103 128 -92 5 5 8 11 5 13 -29 24 -117 87 -122 87 -3 0 -8 -4 -11 -8z"/>
<path d="M2105 4190 c3 -5 11 -10 16 -10 6 0 7 5 4 10 -3 6 -11 10 -16 10 -6 0 -7 -4 -4 -10z"/>
<path d="M2066 4081 c-5 -8 120 -91 137 -91 4 0 7 6 7 14 0 8 -29 30 -64 50 -70 39 -72 40 -80 27z"/>
<path d="M4573 3944 l-73 -54 0 -66 0 -66 53 43 c28 24 53 44 55 45 5 3 44 146 40 149 -2 1 -36 -22 -75 -51z"/>
<path d="M2265 3969 c-8 -12 -9 -11 30 -28 97 -42 125 -51 125 -37 0 7 -17 20 -37 28 -21 9 -55 23 -75 32 -25 11 -39 12 -43 5z"/>
<path d="M2480 3886 c0 -16 163 -68 169 -54 6 16 -21 29 -51 25 -16 -2 -28 0 -28 4 0 7 -18 16 -62 29 -20 6 -28 5 -28 -4z"/>
<path d="M2710 3821 c0 -18 161 -43 167 -26 2 6 -27 16 -67 23 -85 14 -100 15 -100 3z"/>
<path d="M3403 3795 c-8 -21 -3 -23 35 -18 42 7 43 33 2 33 -18 0 -33 -6 -37 -15z"/>
<path d="M2946 3787 c7 -20 144 -29 144 -9 0 7 -12 12 -29 12 -15 0 -49 3 -75 6 -39 6 -46 4 -40 -9z"/>
<path d="M3258 3792 c-52 -2 -68 -6 -68 -17 0 -16 47 -19 112 -7 60 11 30 27 -44 24z"/>
<path d="M2460 3770 c6 -11 17 -20 26 -20 20 0 18 -108 -3 -132 -20 -23 -10 -36 35 -44 l37 -8 -35 -7 c-29 -7 -38 -5 -52 11 -19 24 -28 25 -28 6 0 -8 -6 -16 -12 -19 -15 -5 35 -27 62 -27 10 0 22 -4 25 -10 8 -13 72 -13 80 0 4 6 1 18 -6 26 -6 8 -10 16 -8 17 2 1 13 9 24 17 11 8 17 11 13 6 -3 -4 -2 -21 4 -37 9 -27 12 -28 27 -16 9 8 25 17 36 19 11 2 24 13 30 26 5 12 18 22 27 22 26 0 22 -19 -7 -32 -38 -17 -46 -68 -10 -68 8 0 18 -6 22 -14 10 -17 41 -23 198 -37 167 -16 568 1 591 24 2 2 -2 23 -10 48 -8 24 -17 56 -20 70 -5 21 -10 25 -30 22 -13 -3 -27 0 -30 6 -5 7 2 11 18 11 20 0 24 4 22 25 -2 14 -6 25 -9 25 -4 0 -31 0 -59 0 -62 0 -92 -14 -68 -30 8 -5 27 -10 42 -10 15 0 30 -4 33 -10 3 -5 -3 -10 -14 -10 -11 0 -23 -4 -26 -10 -3 -5 -23 -9 -43 -9 -21 1 -28 3 -17 6 66 16 7 43 -105 48 -42 2 -82 6 -90 9 -8 3 -26 5 -40 5 -57 0 -151 8 -157 14 -9 10 -71 8 -77 -1 -8 -13 -69 -7 -74 7 -2 6 -19 11 -38 11 -20 0 -33 4 -30 9 7 11 -45 22 -73 14 -14 -3 -26 0 -34 11 -7 9 -25 18 -42 20 -16 2 -43 9 -60 15 -57 22 -56 22 -45 1z m240 -110 c0 -16 -5 -19 -30 -14 -25 6 -30 3 -36 -20 -7 -31 -24 -35 -24 -6 0 11 -7 23 -15 26 -8 4 -12 10 -9 15 3 5 8 7 12 5 4 -2 25 0 47 4 22 4 43 8 48 9 4 0 7 -8 7 -19z m110 -36 c0 -8 -5 -12 -10 -9 -6 4 -8 11 -5 16 9 14 15 11 15 -7z m360 -3 c0 -10 -52 -31 -61 -25 -15 9 -10 19 14 30 22 10 47 8 47 -5z m-278 -57 c-6 -35 -19 -20 -14 17 3 18 8 26 12 19 4 -6 5 -22 2 -36z m348 31 c0 -8 -9 -19 -19 -24 -17 -10 -18 -9 -7 14 12 28 26 33 26 10z m60 5 c0 -5 -8 -10 -17 -10 -15 0 -16 2 -3 10 19 12 20 12 20 0z m160 -69 c0 -6 -9 -9 -19 -8 -11 0 -17 5 -15 9 7 11 34 10 34 -1z m40 -21 c0 -5 -5 -10 -11 -10 -5 0 -7 5 -4 10 3 6 8 10 11 10 2 0 4 -4 4 -10z m-414 -9 c-3 -5 -16 -11 -28 -14 -22 -6 -22 -5 -4 8 22 17 40 20 32 6z m-56 -26 c0 -2 -10 -9 -22 -15 -22 -11 -22 -10 -4 4 21 17 26 19 26 11z"/>
<path d="M3140 3780 c0 -5 5 -10 11 -10 5 0 7 5 4 10 -3 6 -8 10 -11 10 -2 0 -4 -4 -4 -10z"/>
<path d="M2423 3743 c-7 -3 -18 -23 -23 -45 -10 -35 -9 -42 7 -54 24 -18 30 -17 53 6 28 28 26 74 -2 87 -13 5 -29 8 -35 6z"/>
<path d="M3293 3663 c9 -2 23 -2 30 0 6 3 -1 5 -18 5 -16 0 -22 -2 -12 -5z"/>
<path d="M2370 3621 c0 -5 5 -22 10 -37 10 -26 11 -26 30 -9 24 22 26 41 4 49 -23 9 -44 7 -44 -3z"/>
<path d="M2640 3500 c0 -5 6 -10 13 -10 6 0 23 -3 37 -7 22 -6 24 -5 11 10 -15 18 -61 23 -61 7z"/>
</g>
</svg>